<?xml version="1.0" encoding="UTF-8"?>
<svg version="1.1" xmlns="http://www.w3.org/2000/svg" width="1025" height="1025">
<path d="M0 0 C0.66 0.33 1.32 0.66 2 1 C4.21848667 1.09884507 6.44003523 1.13072432 8.66072083 1.13371277 C9.35310575 1.13597833 10.04549067 1.13824388 10.75885695 1.14057809 C13.09031264 1.14693295 15.42171041 1.14608777 17.75317383 1.14526367 C19.42021256 1.14825428 21.0872506 1.15165658 22.75428772 1.15544128 C27.29155408 1.16429655 31.82880159 1.16662007 36.36607575 1.16725707 C40.15086177 1.16820519 43.93564337 1.17188245 47.72042769 1.17542917 C56.64963961 1.1835799 65.57884143 1.18601288 74.50805664 1.18530273 C83.72385939 1.18470211 92.93960358 1.19524953 102.15539151 1.2110464 C110.06202909 1.2241171 117.96864752 1.22948681 125.87529582 1.22884732 C130.59994258 1.22859215 135.32453734 1.23145375 140.04917336 1.24202538 C144.4937493 1.25169818 148.93822346 1.25179115 153.38280296 1.24450874 C155.01422652 1.24346181 156.64565637 1.24583223 158.27706909 1.2518692 C160.50427555 1.25957698 162.73112948 1.25495248 164.95832825 1.24723816 C166.2047601 1.24778293 167.45119196 1.24832769 168.73539448 1.24888897 C171.94166728 1.00444721 174.08101664 0.2664111 177 -1 C180.52695912 -0.85604248 182.36468062 -0.52631669 185.09887695 1.73876953 C187.22394279 4.26636164 187.71325439 5.84804884 188.35546875 9.0546875 C189.94103924 15.47566308 192.86605773 20.52712794 196.3125 26.125 C197.57634691 28.23179771 198.83799729 30.33991438 200.09765625 32.44921875 C201.06662842 34.06449463 201.06662842 34.06449463 202.05517578 35.71240234 C205.22124732 41.06443842 208.23373265 46.50007904 211.25 51.9375 C215.42767683 59.44107209 219.66088026 66.89931627 224.04541016 74.28369141 C227.97596153 80.91954425 231.80317172 87.61359694 235.625 94.3125 C236.13518173 95.20659073 236.13518173 95.20659073 236.65567017 96.1187439 C238.40414786 99.18340401 240.15179983 102.24853393 241.89892578 105.31396484 C245.28374059 111.25271397 248.67230894 117.18931857 252.0625 123.125 C252.3935675 123.70472565 252.72463501 124.28445129 253.06573486 124.88174438 C257.85534429 133.26713086 262.66911864 141.63832205 267.5 150 C272.66823094 158.94558975 277.81431341 167.90354844 282.9375 176.875 C283.26894012 177.45538025 283.60038025 178.0357605 283.94186401 178.63372803 C286.63234108 183.3455141 289.32138652 188.05811682 292.01037598 192.77075195 C294.36041657 196.88921585 296.7110209 201.00735725 299.0625 205.125 C299.55978104 205.99581207 299.55978104 205.99581207 300.06710815 206.88421631 C304.85626544 215.26877531 309.6695903 223.63913843 314.5 232 C319.66823094 240.94558975 324.81431341 249.90354844 329.9375 258.875 C330.26894012 259.45538025 330.60038025 260.0357605 330.94186401 260.63372803 C333.63234108 265.3455141 336.32138652 270.05811682 339.01037598 274.77075195 C341.36041657 278.88921585 343.7110209 283.00735725 346.0625 287.125 C346.55978104 287.99581207 346.55978104 287.99581207 347.06710815 288.88421631 C351.85626544 297.26877531 356.6695903 305.63913843 361.5 314 C368.70212794 326.46602223 375.84829676 338.96361244 382.98388672 351.46777344 C384.98935814 354.98180679 386.99638531 358.49494969 389.00390625 362.0078125 C389.4986721 362.87359421 389.4986721 362.87359421 390.00343323 363.75686646 C391.66725359 366.66824085 393.33125294 369.57951288 394.99536133 372.49072266 C398.01661253 377.77653828 401.03673805 383.0629812 404.05130005 388.35261536 C405.74179075 391.31883394 407.43315935 394.2845512 409.125 397.25 C409.45755798 397.8329483 409.79011597 398.41589661 410.13275146 399.01651001 C414.74788047 407.10245969 419.41621812 415.15572771 424.125 423.1875 C429.45362814 432.27795581 434.6291316 441.44575529 439.75488281 450.65185547 C444.27590565 458.75317578 448.92174004 466.77512259 453.61376953 474.77832031 C458.08278735 482.4079881 462.49361631 490.06977486 466.875 497.75 C467.20836365 498.33431793 467.54172729 498.91863586 467.88519287 499.5206604 C469.5800349 502.4919198 471.27407984 505.46363272 472.96777344 508.43554688 C474.97873996 511.96360062 476.99276209 515.48990248 479.0078125 519.015625 C479.33740967 519.59231934 479.66700684 520.16901367 480.0065918 520.76318359 C481.00434185 522.50881918 482.00215772 524.25441713 483 526 C486.68663315 532.44923929 490.37312668 538.89854626 494.05130005 545.35261536 C495.74179075 548.31883394 497.43315935 551.2845512 499.125 554.25 C499.45755798 554.8329483 499.79011597 555.41589661 500.13275146 556.01651001 C504.74788047 564.10245969 509.41621812 572.15572771 514.125 580.1875 C519.45362814 589.27795581 524.6291316 598.44575529 529.75488281 607.65185547 C534.27590565 615.75317578 538.92174004 623.77512259 543.61376953 631.77832031 C548.08278832 639.40798976 552.49348885 647.06984655 556.875 654.75 C557.20803131 655.33365326 557.54106262 655.91730652 557.88418579 656.51864624 C559.57799047 659.48759504 561.27095762 662.45702023 562.96337891 665.42675781 C565.99400521 670.74455679 569.02800298 676.06042876 572.0635376 681.37542725 C573.05441454 683.1108392 574.04454436 684.84667767 575.03466797 686.58251953 C578.44682313 692.55823288 581.87807009 698.52169132 585.33984375 704.46875 C586.04488335 705.68210401 586.74988078 706.89548252 587.45483398 708.10888672 C588.79203165 710.41026157 590.13480326 712.70806997 591.48071289 715.00439453 C592.07489014 716.02645996 592.66906738 717.04852539 593.28125 718.1015625 C593.80783203 719.00213379 594.33441406 719.90270508 594.87695312 720.83056641 C596 723 596 723 596 725 C596.78375 725.28875 597.5675 725.5775 598.375 725.875 C601 727 601 727 603 729 C603.57040557 732.05617298 603.52176997 734.93859456 603 738 C600.8125 740.75 600.8125 740.75 598 743 C594.43264562 746.35668385 591.60626948 749.7735305 588.8828125 753.83984375 C588.50899445 754.39437729 588.13517639 754.94891083 587.75003052 755.52024841 C586.53657108 757.32262066 585.33085228 759.13003164 584.125 760.9375 C583.27502273 762.2023949 582.42442924 763.46687591 581.57324219 764.73095703 C579.85623942 767.28159827 578.14160651 769.833806 576.42871094 772.38720703 C573.06210395 777.40107389 569.65750134 782.38886932 566.25 787.375 C565.03636429 789.15358167 563.82282208 790.93222714 562.609375 792.7109375 C562.01576172 793.58073242 561.42214844 794.45052734 560.81054688 795.34667969 C557.70564975 799.89684447 554.60295783 804.44851261 551.5 809 C550.2500101 810.83334022 549.00001011 812.66667356 547.75 814.5 C547.13125 815.4075 546.5125 816.315 545.875 817.25 C544 820 542.125 822.75 540.25 825.5 C539.3211499 826.86233765 539.3211499 826.86233765 538.37353516 828.25219727 C537.12847862 830.07824774 535.88336182 831.90425712 534.63818359 833.73022461 C531.43704317 838.42464381 528.23707944 843.11985855 525.0390625 847.81640625 C524.38832764 848.77144043 523.73759277 849.72647461 523.06713867 850.71044922 C521.78722781 852.5900116 520.50871046 854.47052377 519.23168945 856.35205078 C516.57302396 860.26287569 513.90595857 864.16034579 511.12890625 867.98828125 C507.03708609 873.64867182 504.37495879 878.12520605 503 885 C500.85012857 887.99446378 499.59498705 888.82276981 496.0625 889.875 C493 890 493 890 490.67052484 889.02348115 C487.65901979 887.86931901 485.42711052 887.74973546 482.20910257 887.74930167 C481.04212332 887.74429464 479.87514408 887.7392876 478.67280182 887.73412883 C477.39237351 887.73881117 476.1119452 887.7434935 474.79271603 887.74831772 C473.41181711 887.74623154 472.03091928 887.7432691 470.65002391 887.73950899 C466.83915991 887.73169409 463.02839675 887.7363948 459.21753432 887.74306489 C455.07777282 887.74812353 450.93802717 887.74162434 446.7982679 887.73657823 C439.53745188 887.72934143 432.27666557 887.7295822 425.01584816 887.73467255 C414.21901202 887.74222141 403.42220106 887.73837844 392.62536511 887.73225593 C373.34520631 887.72171027 354.06506074 887.72264284 334.78490068 887.72841376 C317.91342848 887.7334391 301.04196115 887.73476097 284.17048836 887.73236847 C283.0526307 887.7322157 281.93477305 887.73206293 280.78304092 887.73190553 C276.24563598 887.73128288 271.70823104 887.73064609 267.1708261 887.729986 C224.58229178 887.72386414 181.99376591 887.72942112 139.4052329 887.7401798 C101.5417165 887.74967208 63.67821355 887.74882165 25.81469727 887.73925781 C-16.69600488 887.72855613 -59.20669957 887.7242976 -101.71740288 887.73048234 C-106.24636996 887.7311238 -110.77533704 887.73174948 -115.30430412 887.73236847 C-116.41950437 887.73252662 -117.53470461 887.73268478 -118.6836988 887.73284773 C-135.54806669 887.73512574 -152.4124292 887.73245643 -169.27679634 887.72740936 C-188.44539731 887.72170141 -207.61398294 887.72309793 -226.78258199 887.73397085 C-237.51966461 887.73985976 -248.25671404 887.74020331 -258.99379582 887.7326785 C-266.15576438 887.72821138 -273.31770619 887.73095272 -280.47967076 887.73968804 C-284.56690904 887.74446922 -288.65408114 887.74602364 -292.74131746 887.73887607 C-296.45464025 887.73244825 -300.16783773 887.73511242 -303.88115126 887.7452374 C-305.85601452 887.74822316 -307.83088504 887.74133739 -309.80573741 887.73412883 C-310.97021313 887.73913587 -312.13468886 887.74414291 -313.33445174 887.74930167 C-314.33972002 887.74943719 -315.34498831 887.74957271 -316.38071928 887.74971233 C-319.09064954 888.0086621 -320.63221001 888.73110436 -323 890 C-326.82185292 889.91868398 -328.64674655 889.2569116 -331.75 887 C-333.93950747 884.08065671 -334.2435435 883.40537732 -334.72265625 880.05859375 C-336.035685 873.69111025 -339.36680646 868.57805838 -342.6875 863.0625 C-343.70731625 861.33294677 -344.72711403 859.60338231 -345.74575806 857.87313843 C-346.79872538 856.08789623 -347.85675733 854.30573152 -348.91552734 852.52392578 C-352.16364037 847.04683726 -355.32697841 841.52079744 -358.5 836 C-359.74960961 833.83310816 -360.99961073 831.66644204 -362.25 829.5 C-369.75 816.5 -369.75 816.5 -371.62524414 813.24951172 C-372.87435518 811.08442929 -374.12354129 808.91939018 -375.37280273 806.75439453 C-378.51202309 801.31384294 -381.64990563 795.87252784 -384.78515625 790.4296875 C-391.55502797 778.68045328 -398.34515943 766.94382678 -405.19873047 755.24316406 C-407.68127033 751.00027776 -410.15246392 746.75429778 -412.546875 742.4609375 C-412.91627197 741.80061523 -413.28566895 741.14029297 -413.66625977 740.45996094 C-414.60036258 738.78156822 -415.52527014 737.09806641 -416.44921875 735.4140625 C-417.92689548 732.759671 -417.92689548 732.759671 -421 731 C-422.25744472 726.94911794 -422.48233674 723.17904536 -420.875 719.25 C-419 717 -419 717 -416.77734375 715.05078125 C-412.75277542 711.03940342 -410.3672067 705.88933161 -407.6875 700.9375 C-406.44004264 698.67119171 -405.19129662 696.40559237 -403.94140625 694.140625 C-403.61936218 693.55480148 -403.29731812 692.96897797 -402.96551514 692.36540222 C-399.42496538 685.93118667 -395.7783769 679.55816319 -392.125 673.1875 C-391.45131889 672.01104194 -390.77773543 670.83452796 -390.10424805 669.65795898 C-388.7473793 667.28781537 -387.38998378 664.91797459 -386.03222656 662.54833984 C-383.01631711 657.28378943 -380.00739789 652.015245 -376.99798584 646.74697876 C-375.33228029 643.83115361 -373.66611686 640.91559013 -372 638 C-371.33333114 636.83333459 -370.66666448 635.66666792 -370 634.5 C-337 576.75 -304 519 -222 375.5 C-221.67001007 374.92251511 -221.34002014 374.34503021 -221.00003052 373.75004578 C-220.33327089 372.58322151 -219.6665025 371.41640226 -218.99972534 370.24958801 C-217.33440912 367.33537354 -215.66924463 364.42107258 -214.00439453 361.5065918 C-210.98845394 356.22724336 -207.97137659 350.94856056 -204.94869995 345.67306519 C-203.2567216 342.71996984 -201.56562536 339.76637011 -199.875 336.8125 C-199.54244202 336.23149536 -199.20988403 335.65049072 -198.86724854 335.05187988 C-194.15330102 326.81214849 -189.49632005 318.54203158 -184.875 310.25 C-179.77785402 301.10554429 -174.55001254 292.04640908 -169.24951172 283.01855469 C-165.07710687 275.89414138 -161.01487056 268.71422053 -157 261.5 C-151.86368611 252.27068598 -146.59787465 243.12763027 -141.25 234.01953125 C-137.07756041 226.8947181 -133.01504756 219.71453859 -129 212.5 C-123.86368611 203.27068598 -118.59787465 194.12763027 -113.25 185.01953125 C-109.07756041 177.8947181 -105.01504756 170.71453859 -101 163.5 C-95.86368611 154.27068598 -90.59787465 145.12763027 -85.25 136.01953125 C-81.07756041 128.8947181 -77.01504756 121.71453859 -73 114.5 C-67.86368611 105.27068598 -62.59787465 96.12763027 -57.25 87.01953125 C-53.07756028 79.89471789 -49.01505147 72.71453686 -45 65.5 C-40.32009545 57.0908889 -35.5519974 48.74121547 -30.6875 40.4375 C-30.10581055 39.44161865 -29.52412109 38.4457373 -28.92480469 37.41967773 C-24.48820808 29.82412805 -24.48820808 29.82412805 -22.54736328 26.54785156 C-18.13460005 19.0952554 -14.57913774 12.61347856 -13 4 C-9.14233038 -0.97763822 -5.96147686 -1.26839933 0 0 Z M7 15 C7.96234748 16.76497382 8.92477544 18.52990375 9.88723755 20.29481506 C10.42318102 21.27766511 10.95912449 22.26051516 11.51130867 23.27314854 C20.18824723 39.16678755 29.07298833 54.94065685 38.08300781 70.6472168 C42.48209176 78.31975676 46.82136783 86.02354652 51.125 93.75 C55.6375368 101.84733376 60.24150521 109.88272748 64.9375 117.875 C70.62124552 127.55093813 76.1079026 137.32555939 81.53710938 147.14624023 C86.73152896 156.53786411 92.03018725 165.86511446 97.37646484 175.17089844 C100.50928363 180.63001183 103.62840166 186.09696564 106.75 191.5625 C108.11705798 193.95580318 109.48424916 196.34903021 110.8515625 198.7421875 C111.19368271 199.34099731 111.53580292 199.93980713 111.88829041 200.5567627 C113.94655309 204.15860897 116.00704705 207.75916786 118.06942749 211.35865784 C119.75535957 214.30118101 121.44041628 217.24420472 123.125 220.1875 C123.45719543 220.76787018 123.78939087 221.34824036 124.13165283 221.94619751 C128.8459661 230.18656938 133.50337746 238.45729219 138.125 246.75 C142.63775171 254.84721325 147.24138697 262.88279194 151.9375 270.875 C157.57961427 280.47718607 163.01402469 290.18220327 168.39428711 299.93310547 C172.49727022 307.34915852 176.70245979 314.69515175 181 322 C185.96079169 330.43222606 190.77364413 338.93420335 195.5 347.5 C200.2490629 356.10602986 205.08284722 364.65024209 210.0625 373.125 C215.36219078 382.14442331 220.52142823 391.23259149 225.61401367 400.37036133 C229.98772681 408.21127144 234.41522019 416.02031715 238.875 423.8125 C239.20769897 424.39395782 239.54039795 424.97541565 239.88317871 425.57449341 C242.25389051 429.7172242 244.62668456 433.85876039 247 438 C249.70977867 442.72834018 252.4184702 447.45729928 255.125 452.1875 C255.45737671 452.76823273 255.78975342 453.34896545 256.13220215 453.94729614 C260.84634403 462.18729618 265.50357591 470.45764827 270.125 478.75 C274.6377527 486.84721504 279.24144706 494.88275511 283.9375 502.875 C288.6984705 510.97886536 293.34602266 519.13902976 297.89849854 527.36135864 C298.86312132 529.10354613 299.82974179 530.84462704 300.79638672 532.58569336 C303.39384793 537.26901543 305.98349498 541.95467815 308.51171875 546.67578125 C308.86830566 547.32981934 309.22489258 547.98385742 309.59228516 548.65771484 C310.46854971 550.26515535 311.33083343 551.88019803 312.19140625 553.49609375 C314.37455824 556.51855687 316.88924653 557.99443878 320 560 C321.13154446 563.32391184 321.16676957 565.28289086 320.375 568.6875 C318.58941682 571.69052626 317.24798106 572.70080758 314 574 C307.57142857 573.57142857 307.57142857 573.57142857 306 572 C304.57171382 571.90339288 303.13866369 571.87628166 301.70711422 571.87695217 C300.77505655 571.87496112 299.84299888 571.87297007 298.88269705 571.87091869 C297.84672669 571.87383153 296.81075634 571.87674437 295.74339294 571.87974548 C294.65223004 571.87889106 293.56106713 571.87803663 292.43683869 571.87715632 C288.75011252 571.8754983 285.06343102 571.88102813 281.37670898 571.88647461 C278.74605307 571.88675644 276.11539708 571.88659883 273.48474121 571.8860321 C267.80547554 571.88550668 262.12622133 571.88865539 256.44695854 571.89426994 C248.23560688 571.90238247 240.02426079 571.90499991 231.81290556 571.90625793 C218.49188507 571.90844884 205.17087069 571.91510998 191.84985352 571.92456055 C178.90649445 571.93373366 165.96313705 571.94081499 153.01977539 571.94506836 C152.22251029 571.94533108 151.4252452 571.94559381 150.60382055 571.94586449 C146.60434417 571.94716949 142.60486778 571.94843321 138.60539138 571.94967639 C105.40358981 571.96005022 72.20179572 571.97766959 39 572 C38.43889762 572.99395641 38.43889762 572.99395641 37.86645985 574.00799274 C36.15653335 577.03653865 34.44606907 580.0647805 32.7355957 583.09301758 C32.14714119 584.13544868 31.55868668 585.17787979 30.95240021 586.25189972 C27.08532692 593.097061 23.17737048 599.91312671 19.1875 606.6875 C14.11471304 615.34555417 9.09812512 624.03439874 4.125 632.75 C3.62608749 633.62421097 3.62608749 633.62421097 3.11709595 634.51608276 C0.74316765 638.67649804 -1.62866277 642.83810748 -4 647 C-11.63740583 660.40427743 -19.27702976 673.805891 -27.0625 687.125 C-27.61969727 688.07874512 -28.17689453 689.03249023 -28.75097656 690.01513672 C-29.59160645 691.45397217 -29.59160645 691.45397217 -30.44921875 692.921875 C-31.63285105 694.94789415 -32.81644263 696.97393708 -34 699 C-34.33420959 699.57177979 -34.66841919 700.14355957 -35.01275635 700.73266602 C-37.13057586 704.35675533 -39.2436827 707.98352718 -41.3510437 711.6137085 C-42.35736698 713.34466972 -43.36821952 715.07299523 -44.37915039 716.80126953 C-44.98364014 717.84395996 -45.58812988 718.88665039 -46.2109375 719.9609375 C-46.75024902 720.88696777 -47.28956055 721.81299805 -47.84521484 722.76708984 C-49.15312336 724.8771075 -49.15312336 724.8771075 -49 727 C159.23 727 367.46 727 582 727 C578.06500514 719.13001028 574.09977694 711.5379687 569.625 704 C568.38431708 701.89127156 567.14477996 699.78186867 565.90625 697.671875 C565.26558594 696.58068359 564.62492188 695.48949219 563.96484375 694.36523438 C560.64663534 688.68206033 557.38448712 682.96698797 554.125 677.25 C553.79236145 676.66686035 553.4597229 676.0837207 553.11700439 675.48291016 C551.42144778 672.51045036 549.72660042 669.53758726 548.03222656 666.56445312 C545.02529256 661.28906705 542.01140383 656.01765562 538.99798584 650.74597168 C537.3317007 647.83081342 535.66587373 644.91539337 534 642 C533.33333552 640.83333208 532.66666886 639.66666541 532 638.5 C530.66666667 636.16666667 529.33333333 633.83333333 528 631.5 C527.50501511 630.63378021 527.50501511 630.63378021 527.00003052 629.75006104 C526.33325336 628.58319593 525.66648497 627.41632581 524.99972534 626.24945068 C523.33482094 623.33577909 521.66976514 620.42219422 520.00439453 617.50878906 C516.98319858 612.22315109 513.96317201 606.93686097 510.94869995 601.64738464 C509.25820925 598.68116606 507.56684065 595.7154488 505.875 592.75 C505.54244202 592.1670517 505.20988403 591.58410339 504.86724854 590.98348999 C500.25211953 582.89754031 495.58378188 574.84427229 490.875 566.8125 C485.54853589 557.72573595 480.37432164 548.56209299 475.25170898 539.35913086 C470.66431178 531.13718735 465.94395344 522.99933286 461.1796875 514.87890625 C456.66805551 507.17784315 452.26559171 499.41978021 447.89208984 491.63964844 C444.01674104 484.76081642 440.05779489 477.93475818 436.0625 471.125 C431.27890421 462.96849187 426.59886773 454.7620351 422 446.5 C416.90162887 437.34280035 411.68692031 428.26306978 406.38623047 419.22167969 C401.91721265 411.5920119 397.50638369 403.93022514 393.125 396.25 C392.79163635 395.66568207 392.45827271 395.08136414 392.11480713 394.4793396 C390.4199651 391.5080802 388.72592016 388.53636728 387.03222656 385.56445312 C385.02126004 382.03639938 383.00723791 378.51009752 380.9921875 374.984375 C380.66259033 374.40768066 380.33299316 373.83098633 379.9934082 373.23681641 C378.99565815 371.49118082 377.99784228 369.74558287 377 368 C373.31336685 361.55076071 369.62687332 355.10145374 365.94869995 348.64738464 C364.25820925 345.68116606 362.56684065 342.7154488 360.875 339.75 C360.54244202 339.1670517 360.20988403 338.58410339 359.86724854 337.98348999 C355.25211953 329.89754031 350.58378188 321.84427229 345.875 313.8125 C340.54637186 304.72204419 335.3708684 295.55424471 330.24511719 286.34814453 C325.72409435 278.24682422 321.07825996 270.22487741 316.38623047 262.22167969 C311.91721168 254.59201024 307.50651115 246.93015345 303.125 239.25 C302.79196869 238.66634674 302.45893738 238.08269348 302.11581421 237.48135376 C300.42200953 234.51240496 298.72904238 231.54297977 297.03662109 228.57324219 C293.67347949 222.67198311 290.30621933 216.7730765 286.9375 210.875 C286.60606995 210.29463989 286.27463989 209.71427979 285.9331665 209.11633301 C281.14392337 200.73158738 276.33051209 192.3610388 271.5 184 C266.33176906 175.05441025 261.18568659 166.09645156 256.0625 157.125 C255.73105988 156.54461975 255.39961975 155.9642395 255.05813599 155.36627197 C252.36765892 150.6544859 249.67861348 145.94188318 246.98962402 141.22924805 C244.63958343 137.11078415 242.2889791 132.99264275 239.9375 128.875 C239.60597931 128.29445862 239.27445862 127.71391724 238.93289185 127.11578369 C234.14373456 118.73122469 229.3304097 110.36086157 224.5 102 C219.33176809 93.05440857 214.18598495 84.09628217 209.0625 75.125 C208.73305389 74.54827545 208.40360779 73.9715509 208.06417847 73.37734985 C204.64406033 67.3897639 201.22730157 61.40027941 197.81599426 55.40766907 C193.55896077 47.92981477 189.28837252 40.45994334 185 33 C184.25435791 31.6996582 184.25435791 31.6996582 183.49365234 30.37304688 C182.25550001 28.22198553 181.0060927 26.07811942 179.75 23.9375 C179.10546875 22.83277344 178.4609375 21.72804688 177.796875 20.58984375 C175.95347143 17.93293817 174.76745036 16.63066051 172 15 C168.83785371 14.55651823 168.83785371 14.55651823 165.25494385 14.63923645 C164.57774001 14.63667318 163.90053617 14.6341099 163.202811 14.63146895 C160.93476942 14.62652948 158.66739427 14.64302591 156.39941406 14.65942383 C154.77322912 14.66027007 153.14704304 14.65979502 151.52085876 14.65809631 C147.10584692 14.65723481 142.69107909 14.67488557 138.276124 14.69581819 C133.66234636 14.71455921 129.04856325 14.7163334 124.43475342 14.71989441 C115.69771349 14.72922244 106.96078603 14.7538465 98.22379565 14.78394288 C88.27711235 14.81746328 78.3304237 14.83396696 68.38369799 14.84902918 C47.92240252 14.88039538 27.46120834 14.93317064 7 15 Z M-5 23 C-5.40089844 23.70157227 -5.80179687 24.40314453 -6.21484375 25.12597656 C-40.80989583 85.66731771 -75.40494792 146.20865885 -135 250.5 C-135.32998993 251.07748489 -135.65997986 251.65496979 -135.99996948 252.24995422 C-136.66672911 253.41677849 -137.3334975 254.58359774 -138.00027466 255.75041199 C-139.66559088 258.66462646 -141.33075537 261.57892742 -142.99560547 264.4934082 C-146.01154606 269.77275664 -149.02862341 275.05143944 -152.05130005 280.32693481 C-153.7432784 283.28003016 -155.43437464 286.23362989 -157.125 289.1875 C-157.45755798 289.76850464 -157.79011597 290.34950928 -158.13275146 290.94812012 C-162.84669898 299.18785151 -167.50367995 307.45796842 -172.125 315.75 C-177.22214598 324.89445571 -182.44998746 333.95359092 -187.75048828 342.98144531 C-191.92289313 350.10585862 -195.98512944 357.28577947 -200 364.5 C-205.13631389 373.72931402 -210.40212535 382.87236973 -215.75 391.98046875 C-219.92243959 399.1052819 -223.98495244 406.28546141 -228 413.5 C-233.13631389 422.72931402 -238.40212535 431.87236973 -243.75 440.98046875 C-247.92243959 448.1052819 -251.98495244 455.28546141 -256 462.5 C-261.13631389 471.72931402 -266.40212535 480.87236973 -271.75 489.98046875 C-275.92243959 497.1052819 -279.98495244 504.28546141 -284 511.5 C-289.13631389 520.72931402 -294.40212535 529.87236973 -299.75 538.98046875 C-304.52958103 547.14203011 -309.15348864 555.38444983 -313.75219727 563.64892578 C-317.72815635 570.77628267 -321.80163998 577.83939092 -325.9375 584.875 C-330.91733395 593.34965015 -335.75089103 601.89400177 -340.5 610.5 C-345.80212322 620.10813142 -351.23960865 629.62178932 -356.80078125 639.08203125 C-360.95900339 646.17161269 -365.00361292 653.31808698 -369 660.5 C-373.59868199 668.762213 -378.28125669 676.96708242 -383.0625 685.125 C-384.21360279 687.09892269 -385.36464464 689.07288092 -386.515625 691.046875 C-388.90029355 695.1329492 -391.31218672 699.20170327 -393.734375 703.265625 C-394.92784022 705.30163985 -396.12057442 707.33808343 -397.3125 709.375 C-397.8701001 710.29555176 -398.4277002 711.21610352 -399.00219727 712.16455078 C-402.33421049 717.91244432 -404.95297376 723.22950553 -404 730 C-402.35138794 734.31169787 -400.09051905 738.13136369 -397.6875 742.0625 C-397.04031006 743.1666626 -396.39312012 744.2708252 -395.72631836 745.40844727 C-393.83929447 748.6191729 -391.9222002 751.81025443 -390 755 C-389.1192837 756.49556751 -388.24124071 757.99271614 -387.3671875 759.4921875 C-385.8125411 762.15738849 -384.24688655 764.81553414 -382.671875 767.46875 C-379.33998092 773.09867855 -376.07852327 778.7691917 -372.8125 784.4375 C-372.17449463 785.54472412 -371.53648926 786.65194824 -370.87915039 787.79272461 C-369.57110523 790.06337068 -368.26324552 792.33412358 -366.95556641 794.60498047 C-363.18741961 801.14678438 -359.41326041 807.68512132 -355.6394043 814.22363281 C-352.43533648 819.77572939 -349.23448128 825.3296392 -346.0390625 830.88671875 C-342.91674236 836.31559683 -339.7839843 841.73831757 -336.64355469 847.15673828 C-335.14182591 849.75464876 -333.6520244 852.35903574 -332.1640625 854.96484375 C-331.36012719 856.35199871 -330.55550776 857.73875756 -329.75 859.125 C-329.23010498 860.04865356 -329.23010498 860.04865356 -328.69970703 860.9909668 C-327.67409183 862.79836894 -327.67409183 862.79836894 -326 865 C-325.01 865 -324.02 865 -323 865 C-322.44054687 863.9790625 -321.88109375 862.958125 -321.3046875 861.90625 C-315.85246465 852.00197797 -310.23743204 842.20288134 -304.5246582 832.44677734 C-300.17689815 825.02161201 -295.85886151 817.58002227 -291.5625 810.125 C-290.94101074 809.04686035 -290.31952148 807.9687207 -289.67919922 806.85791016 C-287.78565623 803.57221441 -285.89271763 800.28617126 -284 797 C-276.12337411 783.32445686 -268.22879908 769.66039042 -260.26708984 756.03417969 C-253.46412377 744.38340815 -246.73357814 732.69096256 -240 721 C-232.12419276 707.3258782 -224.23144154 693.66263026 -216.26928711 680.03857422 C-211.98755083 672.70687521 -207.73779993 665.35717019 -203.5 658 C-198.69148156 649.65201541 -193.86094317 641.31756816 -189 633 C-181.61585107 620.36256546 -174.30509865 607.68324702 -167 595 C-159.12337411 581.32445686 -151.22879908 567.66039042 -143.26708984 554.03417969 C-136.46412377 542.38340815 -129.73357814 530.69096256 -123 519 C-115.12337411 505.32445686 -107.22879908 491.66039042 -99.26708984 478.03417969 C-92.46412377 466.38340815 -85.73357814 454.69096256 -79 443 C-71.12337411 429.32445686 -63.22879908 415.66039042 -55.26708984 402.03417969 C-49.11272085 391.49419664 -43.01848219 380.91974305 -36.92626953 370.34375 C-34.26965984 365.73222575 -31.61170443 361.1214786 -28.95288086 356.51123047 C-27.69687102 354.33335118 -26.44115061 352.15530494 -25.18579102 349.97705078 C-21.64261529 343.83277539 -18.07580589 337.70327975 -14.48046875 331.58935547 C-13.57162296 329.99977459 -12.70195311 328.3860075 -11.90234375 326.73876953 C-11 325 -11 325 -9.375 323.6875 C-5.71083479 322.6268206 -2.52204631 322.58752198 1 324 C2.84130337 326.63179395 4.42059836 329.21316398 6 332 C7.2138035 334.05920728 8.42874348 336.11774489 9.64453125 338.17578125 C10.67370893 339.93374881 11.70054271 341.69307102 12.72714233 343.45254517 C14.60953093 346.6783553 16.49601401 349.90176779 18.3828125 353.125 C18.96113075 354.11304375 18.96113075 354.11304375 19.5511322 355.12104797 C23.40475506 361.69985856 27.29396023 368.25724518 31.1875 374.8125 C37.30136094 385.11129353 43.35702579 395.44245474 49.3828125 405.79296875 C53.34598523 412.59900201 57.32805381 419.3939101 61.3125 426.1875 C61.6670224 426.79197968 62.0215448 427.39645935 62.3868103 428.01925659 C63.83027549 430.48036781 65.27377376 432.94145961 66.71739197 435.40248108 C69.28068618 439.7725672 71.84195853 444.14383401 74.40234375 448.515625 C80.75069636 459.35415262 87.10280758 470.1901896 93.5 481 C100.2527762 492.41066669 106.9553646 503.85056502 113.65545654 515.29220581 C116.32913539 519.85711903 119.00760836 524.4192007 121.6875 528.98046875 C122.83777099 530.93923099 123.98793957 532.89805332 125.13806152 534.85690308 C125.86824679 536.10005772 126.59878572 537.34300472 127.32971191 538.58572388 C128.35098595 540.32220432 129.37082647 542.05952761 130.390625 543.796875 C130.96844727 544.78010742 131.54626953 545.76333984 132.14160156 546.77636719 C134.47503459 550.82400904 136.73103827 554.91586889 139 559 C192.46 559 245.92 559 301 559 C291.30380084 541.22363487 281.53874388 523.51465855 271.27148438 506.06176758 C266.89852087 498.60355808 262.67669984 491.06962923 258.5 483.5 C253.7509371 474.89397014 248.91715278 466.34975791 243.9375 457.875 C238.63997691 448.85926584 233.48203492 439.77525321 228.39257812 430.640625 C223.95823989 422.68939782 219.46250529 414.77480953 214.9375 406.875 C210.10095486 398.43012891 205.28011451 389.97698439 200.5 381.5 C195.69647069 372.98284923 190.85659131 364.48695659 186 356 C180.61548335 346.59048701 175.25935275 337.16558554 169.93359375 327.72265625 C165.6492809 320.1330013 161.32866634 312.56440081 157 305 C151.61548335 295.59048701 146.25935275 286.16558554 140.93359375 276.72265625 C136.6492809 269.1330013 132.32866634 261.56440081 128 254 C122.61548335 244.59048701 117.25935275 235.16558554 111.93359375 225.72265625 C107.6492809 218.1330013 103.32866634 210.56440081 99 203 C94.14340812 194.51304243 89.30370449 186.01705263 84.5 177.5 C79.75518604 169.089241 74.98082005 160.69568932 70.1875 152.3125 C69.85284729 151.7271347 69.51819458 151.14176941 69.17340088 150.53866577 C65.76332996 144.57436841 62.35069331 138.61154488 58.93510437 132.65040588 C57.24760969 129.70489112 55.56107525 126.75882747 53.875 123.8125 C53.37657089 122.94167282 53.37657089 122.94167282 52.86807251 122.05325317 C48.15384494 113.81306722 43.49652332 105.54252977 38.875 97.25 C33.80902321 88.16013709 28.61012035 79.1577096 23.33520508 70.18774414 C18.14456203 61.32661132 13.16089828 52.35733271 8.23657227 43.34619141 C4.42567738 36.41220882 0.56127621 29.47612497 -4 23 C-4.33 23 -4.66 23 -5 23 Z M-5 341 C-12.20114942 353.31364649 -19.38021413 365.63911799 -26.5 378 C-31.30850739 386.34799101 -36.13905685 394.68243187 -41 403 C-48.38414893 415.63743454 -55.69490135 428.31675298 -63 441 C-70.87662589 454.67554314 -78.77120092 468.33960958 -86.73291016 481.96582031 C-93.53587623 493.61659185 -100.26642186 505.30903744 -107 517 C-114.87580724 530.6741218 -122.76855846 544.33736974 -130.73071289 557.96142578 C-135.01244917 565.29312479 -139.26220007 572.64282981 -143.5 580 C-148.30851844 588.34798459 -153.13905683 596.68243184 -158 605 C-165.38414893 617.63743454 -172.69490135 630.31675298 -180 643 C-187.87662589 656.67554314 -195.77120092 670.33960958 -203.73291016 683.96582031 C-210.53587623 695.61659185 -217.26642186 707.30903744 -224 719 C-231.87662589 732.67554314 -239.77120092 746.33960958 -247.73291016 759.96582031 C-254.53587623 771.61659185 -261.26642186 783.30903744 -268 795 C-275.3051013 807.68325162 -282.61641643 820.36223167 -290 833 C-294.77645947 841.18068023 -299.54936988 849.36340844 -304.29711914 857.56079102 C-305.29322048 859.27923947 -306.29209119 860.99608169 -307.29101562 862.71289062 C-307.89236328 863.75251953 -308.49371094 864.79214844 -309.11328125 865.86328125 C-309.64735596 866.78407471 -310.18143066 867.70486816 -310.73168945 868.65356445 C-312.11003655 871.0419151 -312.11003655 871.0419151 -313 874 C-236.70570864 874.05139924 -160.41141519 874.09910031 -84.11711121 874.12702942 C-82.42434698 874.12765068 -82.42434698 874.12765068 -80.69738549 874.12828448 C-56.17403326 874.13726243 -31.65068084 874.14557308 -7.12732815 874.15319599 C4.89826891 874.15693812 16.92386591 874.16082776 28.94946289 874.16479492 C30.74453569 874.16538334 30.74453569 874.16538334 32.57587259 874.16598364 C71.39088005 874.17877618 110.20587444 874.20131644 149.02087397 874.22889166 C188.89592893 874.25716864 228.77097665 874.2756515 268.64604146 874.28174497 C274.2733031 874.28260948 279.90056471 874.28358639 285.52782631 874.28463173 C286.63539273 874.284834 287.74295915 874.28503627 288.88408819 874.28524467 C306.73962665 874.28879496 324.59514279 874.30272296 342.45067213 874.3204961 C360.38528466 874.33812778 378.31987498 874.34491149 396.25449588 874.34050413 C406.92026605 874.33821595 417.58595514 874.34436295 428.25171073 874.36239263 C435.36759067 874.37360368 442.48341724 874.37401833 449.59930081 874.36549544 C453.65951366 874.3609462 457.71957268 874.36124145 461.77976932 874.37464955 C465.4698196 874.38674326 469.15959525 874.38515497 472.84964105 874.37241993 C474.80964607 874.3692496 476.76965774 874.38088135 478.7296277 874.39302543 C479.88903134 874.38628355 481.04843499 874.37954167 482.24297208 874.37259549 C483.24171601 874.37306343 484.24045995 874.37353137 485.26946886 874.37401349 C489.73300892 873.76262174 492.27759367 871.89241931 495.07373047 868.43823242 C495.74807129 867.42092041 496.42241211 866.4036084 497.1171875 865.35546875 C497.67777863 864.51962753 497.67777863 864.51962753 498.24969482 863.66690063 C499.46764379 861.84657836 500.67114684 860.01716784 501.875 858.1875 C502.72596161 856.91097574 503.57802525 855.63518547 504.43115234 854.36010742 C506.15171736 851.78682068 507.86766906 849.21055661 509.58007812 846.63183594 C512.88485193 841.66231729 516.25312816 836.73664137 519.625 831.8125 C520.83630978 830.03801449 522.04724452 828.26327291 523.2578125 826.48828125 C524.16708496 825.15531006 524.16708496 825.15531006 525.09472656 823.79541016 C528.56762649 818.6999842 532.03352617 813.59979887 535.5 808.5 C541.43054296 799.77542614 547.36800413 791.05562625 553.31396484 782.34155273 C556.72790926 777.33694829 560.13646247 772.3287301 563.5390625 767.31640625 C564.31054246 766.18033554 565.08202681 765.04426782 565.85351562 763.90820312 C567.3296997 761.73434671 568.80479099 759.55976207 570.27929688 757.38476562 C573.13234341 753.18300618 575.98486468 748.99546838 578.9921875 744.90234375 C581.18964072 742.31406146 581.18964072 742.31406146 581 740 C520.39395413 739.9657372 459.78790717 739.93393603 399.18185425 739.91531372 C398.28553729 739.91503761 397.38922032 739.91476149 396.46574224 739.91447701 C376.98856386 739.90849185 357.51138539 739.90295139 338.03420676 739.89786934 C328.4832537 739.89537457 318.93230067 739.89278147 309.38134766 739.89013672 C308.43088922 739.8898752 307.48043079 739.88961368 306.50117058 739.88934424 C275.66799543 739.88081439 244.83482758 739.86578645 214.00165685 739.84740556 C182.3289951 739.82855841 150.6563374 739.81623331 118.98367013 739.81217002 C114.51495036 739.81159367 110.04623059 739.8109424 105.57751083 739.81024551 C104.25818754 739.81004324 104.25818754 739.81004324 102.91221126 739.80983689 C88.72706614 739.80746913 74.5419335 739.79818139 60.35679348 739.78633593 C46.11219825 739.77458741 31.86761545 739.77005751 17.62301554 739.77299725 C9.14953039 739.77452383 0.67609056 739.7704147 -7.79738645 739.75840491 C-14.10863231 739.75006711 -20.4198339 739.75205275 -26.73108138 739.75820221 C-29.29637715 739.75905354 -31.86167664 739.75646256 -34.42696498 739.75023364 C-37.8918064 739.74230409 -41.35641937 739.74647412 -44.82125664 739.75390434 C-45.83636631 739.74865032 -46.85147598 739.74339629 -47.89734656 739.73798305 C-48.81349448 739.74247763 -49.72964241 739.74697222 -50.67355239 739.75160301 C-51.46686985 739.75129105 -52.2601873 739.75097908 -53.07754468 739.75065767 C-55.23902763 739.83217206 -55.23902763 739.83217206 -57 742 C-60.05757892 742.56075289 -62.93891683 742.52739799 -66 742 C-69.12285081 739.41031884 -69.9017214 737.96313033 -70.3125 733.9375 C-70.1578125 732.4834375 -70.1578125 732.4834375 -70 731 C-69.938125 730.2575 -69.87625 729.515 -69.8125 728.75 C-69.4103125 727.88375 -69.4103125 727.88375 -69 727 C-67.84564453 726.61134766 -67.84564453 726.61134766 -66.66796875 726.21484375 C-63.22696518 724.64800318 -62.39260198 723.06863568 -60.5 719.8125 C-60.0052417 718.97295776 -60.0052417 718.97295776 -59.50048828 718.11645508 C-58.31477966 716.08796075 -57.15596759 714.04558734 -56 712 C-55.53561523 711.18241211 -55.07123047 710.36482422 -54.59277344 709.52246094 C-52.45277711 705.75146287 -50.31877971 701.97718675 -48.19458008 698.19726562 C-44.25833026 691.19599976 -40.2485784 684.24201735 -36.1875 677.3125 C-31.1164799 668.65340049 -26.09813528 659.96561906 -21.125 651.25 C-20.62608749 650.37578903 -20.62608749 650.37578903 -20.11709595 649.48391724 C-17.74316765 645.32350196 -15.37133723 641.16189252 -13 637 C-10.29310624 632.24917808 -7.58529654 627.49888166 -4.875 622.75 C-4.54195862 622.16641724 -4.20891724 621.58283447 -3.86578369 620.98156738 C1.27352667 611.98021232 6.47711291 603.0178681 11.71362305 594.07275391 C16.51435399 585.86056671 21.24149269 577.60722821 25.953125 569.34375 C31.38852814 559.81088911 36.85880922 550.29871731 42.35083008 540.79833984 C45.59537411 535.18139067 48.82804263 529.55803665 52.0390625 523.921875 C52.37677673 523.32926376 52.71449097 522.73665253 53.06243896 522.12608337 C54.41853895 519.74611536 55.77454592 517.36609648 57.12890625 514.98513794 C60.66385195 508.77288241 64.22956191 502.58349709 67.8984375 496.44921875 C68.81085205 494.92312988 68.81085205 494.92312988 69.74169922 493.36621094 C70.8856311 491.46082259 72.03539833 489.55892138 73.19189453 487.66113281 C73.69575684 486.82291992 74.19961914 485.98470703 74.71875 485.12109375 C75.16154297 484.3933374 75.60433594 483.66558105 76.06054688 482.91577148 C77.22014463 480.90669168 77.22014463 480.90669168 77 478 C76.10311814 476.00300398 76.10311814 476.00300398 74.83203125 473.88671875 C74.35805908 473.06300781 73.88408691 472.23929688 73.39575195 471.390625 C72.87327881 470.49859375 72.35080566 469.6065625 71.8125 468.6875 C71.27004639 467.75035156 70.72759277 466.81320312 70.16870117 465.84765625 C65.34057291 457.52688372 60.44236422 449.24696385 55.53515625 440.97265625 C51.58470964 434.30718764 47.66626075 427.62308085 43.75 420.9375 C43.02938197 419.70759874 42.30876021 418.47769966 41.58813477 417.24780273 C39.0235828 412.87045406 36.45979424 408.49265838 33.89599609 404.11486816 C19.50905256 379.52142723 19.50905256 379.52142723 5 355 C4.35949707 353.92371338 4.35949707 353.92371338 3.70605469 352.82568359 C2.58135098 350.94227992 1.44910754 349.06373721 0.3125 347.1875 C-0.28949219 346.19105469 -0.89148438 345.19460938 -1.51171875 344.16796875 C-2.81891595 341.88875509 -2.81891595 341.88875509 -5 341 Z M85 493 C79.59440259 501.66587618 74.40775616 510.42353367 69.375 519.3125 C67.98866875 521.75356728 66.60026834 524.19345133 65.2109375 526.6328125 C64.86335388 527.24325912 64.51577026 527.85370575 64.15765381 528.48265076 C59.89273552 535.96009928 55.53634938 543.38407729 51.16552734 550.80004883 C50.61590332 551.7361499 50.0662793 552.67225098 49.5 553.63671875 C49.0153125 554.45873779 48.530625 555.28075684 48.03125 556.12768555 C46.9195918 557.78973219 46.9195918 557.78973219 47 559 C72.41 559 97.82 559 124 559 C119.96090586 550.87169247 119.96090586 550.87169247 115.5390625 543.03125 C114.90959717 541.97744141 114.28013184 540.92363281 113.6315918 539.83789062 C112.9694165 538.73638672 112.30724121 537.63488281 111.625 536.5 C110.20451033 534.12650037 108.78712986 531.75115898 107.37109375 529.375 C107.01136978 528.77167847 106.65164581 528.16835693 106.28102112 527.54675293 C103.72090794 523.2415836 101.20882758 518.91074025 98.72265625 514.5625 C98.38071228 513.96514038 98.03876831 513.36778076 97.6864624 512.75231934 C96.04636645 509.88473019 94.4124272 507.01383796 92.78564453 504.13867188 C92.20024902 503.11322266 91.61485352 502.08777344 91.01171875 501.03125 C90.24541138 499.67870117 90.24541138 499.67870117 89.46362305 498.29882812 C88.13638255 496.21420819 86.82540545 494.64976156 85 493 Z " fill="#000000" transform="translate(422,68)"/>
</svg>
