<?xml version="1.0" encoding="UTF-8"?>
<svg version="1.1" xmlns="http://www.w3.org/2000/svg" width="1025" height="1025">
<path d="M0 0 C0.66 0.33 1.32 0.66 2 1 C4.21848667 1.09884507 6.44003523 1.13072432 8.66072083 1.13371277 C9.35310575 1.13597833 10.04549067 1.13824388 10.75885695 1.14057809 C13.09031264 1.14693295 15.42171041 1.14608777 17.75317383 1.14526367 C19.42021256 1.14825428 21.0872506 1.15165658 22.75428772 1.15544128 C27.29155408 1.16429655 31.82880159 1.16662007 36.36607575 1.16725707 C40.15086177 1.16820519 43.93564337 1.17188245 47.72042769 1.17542917 C56.64963961 1.1835799 65.57884143 1.18601288 74.50805664 1.18530273 C83.72385939 1.18470211 92.93960358 1.19524953 102.15539151 1.2110464 C110.06202909 1.2241171 117.96864752 1.22948681 125.87529582 1.22884732 C130.59994258 1.22859215 135.32453734 1.23145375 140.04917336 1.24202538 C144.4937493 1.25169818 148.93822346 1.25179115 153.38280296 1.24450874 C155.01422652 1.24346181 156.64565637 1.24583223 158.27706909 1.2518692 C160.50427555 1.25957698 162.73112948 1.25495248 164.95832825 1.24723816 C166.2047601 1.24778293 167.45119196 1.24832769 168.73539448 1.24888897 C171.94166728 1.00444721 174.08101664 0.2664111 177 -1 C180.52695912 -0.85604248 182.36468062 -0.52631669 185.09887695 1.73876953 C187.22394279 4.26636164 187.71325439 5.84804884 188.35546875 9.0546875 C189.94104878 15.47570172 192.86616308 20.52706172 196.3125 26.125 C197.58152802 28.24092888 198.84839003 30.35815806 200.11328125 32.4765625 C200.75990723 33.55454102 201.4065332 34.63251953 202.07275391 35.74316406 C205.14810542 40.94017308 208.07264223 46.21866737 211 51.5 C216.09656082 60.6581824 221.31310435 69.73697229 226.61376953 78.77832031 C231.08278735 86.4079881 235.49361631 94.06977486 239.875 101.75 C240.37504547 102.6264769 240.37504547 102.6264769 240.88519287 103.5206604 C242.5800349 106.4919198 244.27407984 109.46363272 245.96777344 112.43554688 C247.97873996 115.96360062 249.99276209 119.48990248 252.0078125 123.015625 C252.33740967 123.59231934 252.66700684 124.16901367 253.0065918 124.76318359 C254.00434185 126.50881918 255.00215772 128.25441713 256 130 C259.68663315 136.44923929 263.37312668 142.89854626 267.05130005 149.35261536 C268.74179075 152.31883394 270.43315935 155.2845512 272.125 158.25 C272.45755798 158.8329483 272.79011597 159.41589661 273.13275146 160.01651001 C277.74788047 168.10245969 282.41621812 176.15572771 287.125 184.1875 C292.45362814 193.27795581 297.6291316 202.44575529 302.75488281 211.65185547 C307.27590565 219.75317578 311.92174004 227.77512259 316.61376953 235.77832031 C321.08278735 243.4079881 325.49361631 251.06977486 329.875 258.75 C330.20836365 259.33431793 330.54172729 259.91863586 330.88519287 260.5206604 C332.5800349 263.4919198 334.27407984 266.46363272 335.96777344 269.43554688 C338.97480863 274.71111047 341.98877937 279.9827106 345.00228882 285.25457764 C346.66707936 288.16700631 348.33162965 291.07957225 349.99609375 293.9921875 C350.32589737 294.56929474 350.65570099 295.14640198 350.99549866 295.74099731 C353.00661453 299.26050379 355.01657378 302.78066812 357.02566528 306.30133057 C363.82477958 318.21576145 370.63753173 330.12188804 377.5 342 C382.66823094 350.94558975 387.81431341 359.90354844 392.9375 368.875 C393.26894012 369.45538025 393.60038025 370.0357605 393.94186401 370.63372803 C396.63234108 375.3455141 399.32138652 380.05811682 402.01037598 384.77075195 C404.36041657 388.88921585 406.7110209 393.00735725 409.0625 397.125 C409.55978104 397.99581207 409.55978104 397.99581207 410.06710815 398.88421631 C414.85626544 407.26877531 419.6695903 415.63913843 424.5 424 C429.66823094 432.94558975 434.81431341 441.90354844 439.9375 450.875 C440.26894012 451.45538025 440.60038025 452.0357605 440.94186401 452.63372803 C443.63234108 457.3455141 446.32138652 462.05811682 449.01037598 466.77075195 C451.36041657 470.88921585 453.7110209 475.00735725 456.0625 479.125 C456.55978104 479.99581207 456.55978104 479.99581207 457.06710815 480.88421631 C461.85626544 489.26877531 466.6695903 497.63913843 471.5 506 C476.66823094 514.94558975 481.81431341 523.90354844 486.9375 532.875 C487.26894012 533.45538025 487.60038025 534.0357605 487.94186401 534.63372803 C490.63234108 539.3455141 493.32138652 544.05811682 496.01037598 548.77075195 C498.36041657 552.88921585 500.7110209 557.00735725 503.0625 561.125 C503.55978104 561.99581207 503.55978104 561.99581207 504.06710815 562.88421631 C508.85626544 571.26877531 513.6695903 579.63913843 518.5 588 C523.66823094 596.94558975 528.81431341 605.90354844 533.9375 614.875 C534.26894012 615.45538025 534.60038025 616.0357605 534.94186401 616.63372803 C537.63234108 621.3455141 540.32138652 626.05811682 543.01037598 630.77075195 C545.36041657 634.88921585 547.7110209 639.00735725 550.0625 643.125 C550.55978104 643.99581207 550.55978104 643.99581207 551.06710815 644.88421631 C556.46362367 654.33210037 561.89395012 663.76017827 567.33813477 673.18066406 C572.74346045 682.53990521 578.10764733 691.92231735 583.45898438 701.3125 C584.08095703 702.40304687 584.70292969 703.49359375 585.34375 704.6171875 C585.94445312 705.67131836 586.54515625 706.72544922 587.1640625 707.81152344 C589.64188412 712.11476152 592.18170031 716.38073034 594.73242188 720.64111328 C596 723 596 723 596 725 C596.78375 725.28875 597.5675 725.5775 598.375 725.875 C601 727 601 727 603 729 C603.57040557 732.05617298 603.52176997 734.93859456 603 738 C600.8125 740.75 600.8125 740.75 598 743 C592.6674429 747.70295286 589.05036133 753.55479742 585.125 759.4375 C584.36990344 760.56005556 583.61419723 761.68220125 582.85791016 762.80395508 C581.31384894 765.09502598 579.7722493 767.38772229 578.23242188 769.68164062 C574.9691212 774.53233865 571.6730988 779.36042608 568.375 784.1875 C567.14309311 785.99339678 565.91132208 787.79938625 564.6796875 789.60546875 C564.07350586 790.49411621 563.46732422 791.38276367 562.84277344 792.29833984 C559.72783713 796.86509728 556.61397822 801.43258924 553.5 806 C552.25000505 807.83333678 551.00000505 809.66667011 549.75 811.5 C549.13125 812.4075 548.5125 813.315 547.875 814.25 C546 817 544.125 819.75 542.25 822.5 C541.63092773 823.4079834 541.01185547 824.3159668 540.37402344 825.25146484 C539.12731907 827.07994293 537.88057445 828.90839357 536.63378906 830.73681641 C533.45803082 835.39420781 530.28303048 840.05211292 527.109375 844.7109375 C526.46895264 845.65050293 525.82853027 846.59006836 525.16870117 847.55810547 C523.90177527 849.41811196 522.63628375 851.27909637 521.37231445 853.14111328 C518.51614777 857.34280966 515.64078754 861.52488939 512.68359375 865.65625 C512.17473633 866.37377441 511.66587891 867.09129883 511.14160156 867.83056641 C510.21236722 869.13704867 509.27377079 870.43695502 508.32324219 871.72802734 C505.2605255 876.05390513 504.13870206 879.8295299 503 885 C500.85012857 887.99446378 499.59498705 888.82276981 496.0625 889.875 C493 890 493 890 490.67052484 889.02348115 C487.65901979 887.86931901 485.42711052 887.74973546 482.20910257 887.74930167 C481.04212332 887.74429464 479.87514408 887.7392876 478.67280182 887.73412883 C477.39237351 887.73881117 476.1119452 887.7434935 474.79271603 887.74831772 C473.41181711 887.74623154 472.03091928 887.7432691 470.65002391 887.73950899 C466.83915991 887.73169409 463.02839675 887.7363948 459.21753432 887.74306489 C455.07777282 887.74812353 450.93802717 887.74162434 446.7982679 887.73657823 C439.53745188 887.72934143 432.27666557 887.7295822 425.01584816 887.73467255 C414.21901202 887.74222141 403.42220106 887.73837844 392.62536511 887.73225593 C373.34520631 887.72171027 354.06506074 887.72264284 334.78490068 887.72841376 C317.91342848 887.7334391 301.04196115 887.73476097 284.17048836 887.73236847 C283.0526307 887.7322157 281.93477305 887.73206293 280.78304092 887.73190553 C276.24563598 887.73128288 271.70823104 887.73064609 267.1708261 887.729986 C224.58229178 887.72386414 181.99376591 887.72942112 139.4052329 887.7401798 C101.5417165 887.74967208 63.67821355 887.74882165 25.81469727 887.73925781 C-16.69600488 887.72855613 -59.20669957 887.7242976 -101.71740288 887.73048234 C-106.24636996 887.7311238 -110.77533704 887.73174948 -115.30430412 887.73236847 C-116.41950437 887.73252662 -117.53470461 887.73268478 -118.6836988 887.73284773 C-135.54806669 887.73512574 -152.4124292 887.73245643 -169.27679634 887.72740936 C-188.44539731 887.72170141 -207.61398294 887.72309793 -226.78258199 887.73397085 C-237.51966461 887.73985976 -248.25671404 887.74020331 -258.99379582 887.7326785 C-266.15576438 887.72821138 -273.31770619 887.73095272 -280.47967076 887.73968804 C-284.56690904 887.74446922 -288.65408114 887.74602364 -292.74131746 887.73887607 C-296.45464025 887.73244825 -300.16783773 887.73511242 -303.88115126 887.7452374 C-305.85601452 887.74822316 -307.83088504 887.74133739 -309.80573741 887.73412883 C-310.97021313 887.73913587 -312.13468886 887.74414291 -313.33445174 887.74930167 C-314.33972002 887.74943719 -315.34498831 887.74957271 -316.38071928 887.74971233 C-319.09064954 888.0086621 -320.63221001 888.73110436 -323 890 C-326.82185292 889.91868398 -328.64674655 889.2569116 -331.75 887 C-333.93950747 884.08065671 -334.2435435 883.40537732 -334.72265625 880.05859375 C-336.035685 873.69111025 -339.36680646 868.57805838 -342.6875 863.0625 C-343.70731625 861.33294677 -344.72711403 859.60338231 -345.74575806 857.87313843 C-346.79872538 856.08789623 -347.85675733 854.30573152 -348.91552734 852.52392578 C-352.16364037 847.04683726 -355.32697841 841.52079744 -358.5 836 C-359.74960961 833.83310816 -360.99961073 831.66644204 -362.25 829.5 C-384.75000001 790.49999999 -384.75000001 790.49999999 -386.62695312 787.24658203 C-387.8704051 785.09128689 -389.11389436 782.93601327 -390.35742188 780.78076172 C-393.24462875 775.77662326 -396.1315043 770.7722948 -399.01696777 765.76715088 C-400.02619104 764.01658759 -401.03553836 762.26609589 -402.04492188 760.515625 C-403.3016766 758.33607835 -404.55820586 756.15640168 -405.81445312 753.9765625 C-406.96386886 751.98338571 -408.11549906 749.99148402 -409.26953125 748.00097656 C-410.4869044 745.8898097 -411.69150614 743.77125229 -412.88671875 741.64746094 C-413.50160156 740.5649707 -414.11648438 739.48248047 -414.75 738.3671875 C-415.30171875 737.3860498 -415.8534375 736.40491211 -416.421875 735.39404297 C-417.9330959 732.76336522 -417.9330959 732.76336522 -421 731 C-422.25744472 726.94911794 -422.48233674 723.17904536 -420.875 719.25 C-419 717 -419 717 -416.78515625 715.06640625 C-412.69524461 710.99289002 -410.28147243 705.71775226 -407.5625 700.6875 C-406.31570721 698.41952455 -405.06695921 696.15262303 -403.81640625 693.88671875 C-402.86531982 692.16074463 -402.86531982 692.16074463 -401.89501953 690.39990234 C-399.00811059 685.22042618 -396.00836038 680.1095857 -393 675 C-388.2346466 666.88645166 -383.5757043 658.72196867 -379 650.5 C-374.42427808 642.27799968 -369.76412217 634.1142901 -365 626 C-359.68160725 616.93815741 -354.50128891 607.80807301 -349.38623047 598.63012695 C-345.012484 590.78903143 -340.58512833 582.97969078 -336.125 575.1875 C-335.79163635 574.60504517 -335.45827271 574.02259033 -335.11480713 573.42248535 C-333.42126286 570.46406468 -331.72692174 567.50610134 -330.03222656 564.54833984 C-327.01631711 559.28378943 -324.00739789 554.015245 -320.99798584 548.74697876 C-319.33228029 545.83115361 -317.66611686 542.91559013 -316 540 C-315.33333114 538.83333459 -314.66666448 537.66666792 -314 536.5 C-281 478.75 -248 421 -182 305.5 C-181.67001007 304.92251511 -181.34002014 304.34503021 -181.00003052 303.75004578 C-180.33327089 302.58322151 -179.6665025 301.41640226 -178.99972534 300.24958801 C-177.33440912 297.33537354 -175.66924463 294.42107258 -174.00439453 291.5065918 C-170.98845394 286.22724336 -167.97137659 280.94856056 -164.94869995 275.67306519 C-163.2567216 272.71996984 -161.56562536 269.76637011 -159.875 266.8125 C-159.54244202 266.23149536 -159.20988403 265.65049072 -158.86724854 265.05187988 C-154.15330102 256.81214849 -149.49632005 248.54203158 -144.875 240.25 C-139.77785402 231.10554429 -134.55001254 222.04640908 -129.24951172 213.01855469 C-125.07710687 205.89414138 -121.01487056 198.71422053 -117 191.5 C-111.86368611 182.27068598 -106.59787465 173.12763027 -101.25 164.01953125 C-97.07756041 156.8947181 -93.01504756 149.71453859 -89 142.5 C-83.86368611 133.27068598 -78.59787465 124.12763027 -73.25 115.01953125 C-69.07756041 107.8947181 -65.01504756 100.71453859 -61 93.5 C-56.42427998 85.27800309 -51.76426193 77.11420633 -47 69 C-41.56679426 59.74582251 -36.27227568 50.42244511 -31.06542969 41.0390625 C-28.3532455 36.16052311 -25.61237705 31.3094595 -22.74609375 26.51953125 C-21.98558716 25.24203003 -21.98558716 25.24203003 -21.2097168 23.9387207 C-20.27520663 22.37745259 -19.330924 20.82196702 -18.37426758 19.27416992 C-15.74838154 14.87742 -14.29468441 10.97867516 -13.4597168 5.9140625 C-12.77295463 3.05468097 -11.33333522 1.69697107 -9 0 C-5.49142603 -1.16952466 -3.57280503 -0.76017128 0 0 Z M7 15 C7.96234748 16.76497382 8.92477544 18.52990375 9.88723755 20.29481506 C10.42318102 21.27766511 10.95912449 22.26051516 11.51130867 23.27314854 C20.18824723 39.16678755 29.07298833 54.94065685 38.08300781 70.6472168 C42.48209176 78.31975676 46.82136783 86.02354652 51.125 93.75 C55.6375368 101.84733376 60.24150521 109.88272748 64.9375 117.875 C70.62124552 127.55093813 76.1079026 137.32555939 81.53710938 147.14624023 C86.73152896 156.53786411 92.03018725 165.86511446 97.37646484 175.17089844 C100.50928363 180.63001183 103.62840166 186.09696564 106.75 191.5625 C108.11705798 193.95580318 109.48424916 196.34903021 110.8515625 198.7421875 C111.19368271 199.34099731 111.53580292 199.93980713 111.88829041 200.5567627 C113.94655309 204.15860897 116.00704705 207.75916786 118.06942749 211.35865784 C119.75535957 214.30118101 121.44041628 217.24420472 123.125 220.1875 C123.45719543 220.76787018 123.78939087 221.34824036 124.13165283 221.94619751 C128.8459661 230.18656938 133.50337746 238.45729219 138.125 246.75 C142.63775171 254.84721325 147.24138697 262.88279194 151.9375 270.875 C157.57961427 280.47718607 163.01402469 290.18220327 168.39428711 299.93310547 C172.49727022 307.34915852 176.70245979 314.69515175 181 322 C185.96079169 330.43222606 190.77364413 338.93420335 195.5 347.5 C200.2490629 356.10602986 205.08284722 364.65024209 210.0625 373.125 C215.36219078 382.14442331 220.52142823 391.23259149 225.61401367 400.37036133 C229.98772681 408.21127144 234.41522019 416.02031715 238.875 423.8125 C239.20769897 424.39395782 239.54039795 424.97541565 239.88317871 425.57449341 C242.25389051 429.7172242 244.62668456 433.85876039 247 438 C249.70977867 442.72834018 252.4184702 447.45729928 255.125 452.1875 C255.45737671 452.76823273 255.78975342 453.34896545 256.13220215 453.94729614 C260.84634403 462.18729618 265.50357591 470.45764827 270.125 478.75 C274.6377527 486.84721504 279.24144706 494.88275511 283.9375 502.875 C288.6984705 510.97886536 293.34602266 519.13902976 297.89849854 527.36135864 C298.86312132 529.10354613 299.82974179 530.84462704 300.79638672 532.58569336 C303.39384793 537.26901543 305.98349498 541.95467815 308.51171875 546.67578125 C308.86830566 547.32981934 309.22489258 547.98385742 309.59228516 548.65771484 C310.46854971 550.26515535 311.33083343 551.88019803 312.19140625 553.49609375 C314.37455824 556.51855687 316.88924653 557.99443878 320 560 C321.13154446 563.32391184 321.16676957 565.28289086 320.375 568.6875 C318.58941682 571.69052626 317.24798106 572.70080758 314 574 C307.57142857 573.57142857 307.57142857 573.57142857 306 572 C304.57171382 571.90339288 303.13866369 571.87628166 301.70711422 571.87695217 C300.77505655 571.87496112 299.84299888 571.87297007 298.88269705 571.87091869 C297.84672669 571.87383153 296.81075634 571.87674437 295.74339294 571.87974548 C294.65223004 571.87889106 293.56106713 571.87803663 292.43683869 571.87715632 C288.75011252 571.8754983 285.06343102 571.88102813 281.37670898 571.88647461 C278.74605307 571.88675644 276.11539708 571.88659883 273.48474121 571.8860321 C267.80547554 571.88550668 262.12622133 571.88865539 256.44695854 571.89426994 C248.23560688 571.90238247 240.02426079 571.90499991 231.81290556 571.90625793 C218.49188507 571.90844884 205.17087069 571.91510998 191.84985352 571.92456055 C178.90649445 571.93373366 165.96313705 571.94081499 153.01977539 571.94506836 C152.22251029 571.94533108 151.4252452 571.94559381 150.60382055 571.94586449 C146.60434417 571.94716949 142.60486778 571.94843321 138.60539138 571.94967639 C105.40358981 571.96005022 72.20179572 571.97766959 39 572 C38.43889762 572.99395641 38.43889762 572.99395641 37.86645985 574.00799274 C36.15653335 577.03653865 34.44606907 580.0647805 32.7355957 583.09301758 C32.14714119 584.13544868 31.55868668 585.17787979 30.95240021 586.25189972 C27.08532692 593.097061 23.17737048 599.91312671 19.1875 606.6875 C14.11471304 615.34555417 9.09812512 624.03439874 4.125 632.75 C3.62608749 633.62421097 3.62608749 633.62421097 3.11709595 634.51608276 C0.74316765 638.67649804 -1.62866277 642.83810748 -4 647 C-11.63740583 660.40427743 -19.27702976 673.805891 -27.0625 687.125 C-27.61969727 688.07874512 -28.17689453 689.03249023 -28.75097656 690.01513672 C-29.59160645 691.45397217 -29.59160645 691.45397217 -30.44921875 692.921875 C-31.63285105 694.94789415 -32.81644263 696.97393708 -34 699 C-34.33420959 699.57177979 -34.66841919 700.14355957 -35.01275635 700.73266602 C-37.13057586 704.35675533 -39.2436827 707.98352718 -41.3510437 711.6137085 C-42.35736698 713.34466972 -43.36821952 715.07299523 -44.37915039 716.80126953 C-44.98364014 717.84395996 -45.58812988 718.88665039 -46.2109375 719.9609375 C-46.75024902 720.88696777 -47.28956055 721.81299805 -47.84521484 722.76708984 C-49.15312336 724.8771075 -49.15312336 724.8771075 -49 727 C159.23 727 367.46 727 582 727 C578.03070785 719.06141571 574.0190316 711.41315956 569.5 703.8125 C564.56170696 695.43109007 559.72728091 687.00217922 555 678.5 C549.90210613 669.34254061 544.68691398 660.26305897 539.38623047 651.22167969 C534.91721265 643.5920119 530.50638369 635.93022514 526.125 628.25 C525.79163635 627.66568207 525.45827271 627.08136414 525.11480713 626.4793396 C523.4199651 623.5080802 521.72592016 620.53636728 520.03222656 617.56445312 C518.02126004 614.03639938 516.00723791 610.51009752 513.9921875 606.984375 C513.66259033 606.40768066 513.33299316 605.83098633 512.9934082 605.23681641 C511.99565815 603.49118082 510.99784228 601.74558287 510 600 C506.31336685 593.55076071 502.62687332 587.10145374 498.94869995 580.64738464 C497.25820925 577.68116606 495.56684065 574.7154488 493.875 571.75 C493.54244202 571.1670517 493.20988403 570.58410339 492.86724854 569.98348999 C488.25211953 561.89754031 483.58378188 553.84427229 478.875 545.8125 C473.54637186 536.72204419 468.3708684 527.55424471 463.24511719 518.34814453 C458.72409435 510.24682422 454.07825996 502.22487741 449.38623047 494.22167969 C444.91721265 486.5920119 440.50638369 478.93022514 436.125 471.25 C435.79163635 470.66568207 435.45827271 470.08136414 435.11480713 469.4793396 C433.4199651 466.5080802 431.72592016 463.53636728 430.03222656 460.56445312 C427.02519137 455.28888953 424.01122063 450.0172894 420.99771118 444.74542236 C419.33292064 441.83299369 417.66837035 438.92042775 416.00390625 436.0078125 C415.67410263 435.43070526 415.34429901 434.85359802 415.00450134 434.25900269 C412.99338547 430.73949621 410.98342622 427.21933188 408.97433472 423.69866943 C402.17522042 411.78423855 395.36246827 399.87811196 388.5 388 C383.33176906 379.05441025 378.18568659 370.09645156 373.0625 361.125 C372.73105988 360.54461975 372.39961975 359.9642395 372.05813599 359.36627197 C369.36765892 354.6544859 366.67861348 349.94188318 363.98962402 345.22924805 C361.63958343 341.11078415 359.2889791 336.99264275 356.9375 332.875 C356.44021896 332.00418793 356.44021896 332.00418793 355.93289185 331.11578369 C351.14373456 322.73122469 346.3304097 314.36086157 341.5 306 C336.33176906 297.05441025 331.18568659 288.09645156 326.0625 279.125 C325.73105988 278.54461975 325.39961975 277.9642395 325.05813599 277.36627197 C322.36765892 272.6544859 319.67861348 267.94188318 316.98962402 263.22924805 C314.63958343 259.11078415 312.2889791 254.99264275 309.9375 250.875 C309.44021896 250.00418793 309.44021896 250.00418793 308.93289185 249.11578369 C304.14373456 240.73122469 299.3304097 232.36086157 294.5 224 C289.33176857 215.05440941 284.18583694 206.09636619 279.0625 197.125 C278.73139221 196.54528442 278.40028442 195.96556885 278.05914307 195.36828613 C274.68478936 189.45983362 271.31309538 183.54986911 267.94416809 177.63832092 C266.25523789 174.67509502 264.56534878 171.71241688 262.875 168.75 C262.54253265 168.16723297 262.21006531 167.58446594 261.86752319 166.98403931 C257.25230757 158.89790307 252.5838856 150.84444921 247.875 142.8125 C242.54637186 133.72204419 237.3708684 124.55424471 232.24511719 115.34814453 C227.72409435 107.24682422 223.07825996 99.22487741 218.38623047 91.22167969 C213.9172069 83.59200207 209.50714439 75.9297972 205.125 68.25 C204.62993958 67.38299469 204.62993958 67.38299469 204.12487793 66.49847412 C200.6534467 60.41870626 197.18867349 54.33521401 193.73501587 48.24533081 C192.29627398 45.70946849 190.8550378 43.17502833 189.41351318 40.64074707 C188.7327653 39.44232673 188.05323666 38.2432128 187.37506104 37.04333496 C181.21266208 24.72881819 181.21266208 24.72881819 172 15 C168.93569699 14.70211569 168.93569699 14.70211569 165.37519836 14.75949097 C164.36067424 14.75692769 164.36067424 14.75692769 163.32565469 14.75431263 C161.05464253 14.75101295 158.78392448 14.76202911 156.51293945 14.77294922 C154.88690193 14.77351323 153.26086389 14.77319697 151.63482666 14.77206421 C147.21567933 14.7714893 142.7966401 14.78326592 138.37751794 14.79721212 C133.76105815 14.8096965 129.14459601 14.81088817 124.52812195 14.81326294 C115.78399557 14.81948446 107.03991908 14.83590436 98.29581469 14.85596192 C88.34189072 14.87830003 78.38796439 14.88930909 68.43402159 14.89935279 C47.95598653 14.92027001 27.4779964 14.95545903 7 15 Z M-5 23 C-5.40089844 23.70157227 -5.80179687 24.40314453 -6.21484375 25.12597656 C-40.80989583 85.66731771 -75.40494792 146.20865885 -199 362.5 C-199.32998993 363.07748489 -199.65997986 363.65496979 -199.99996948 364.24995422 C-200.66672911 365.41677849 -201.3334975 366.58359774 -202.00027466 367.75041199 C-203.66559088 370.66462646 -205.33075537 373.57892742 -206.99560547 376.4934082 C-210.01154606 381.77275664 -213.02862341 387.05143944 -216.05130005 392.32693481 C-217.7432784 395.28003016 -219.43437464 398.23362989 -221.125 401.1875 C-221.45755798 401.76850464 -221.79011597 402.34950928 -222.13275146 402.94812012 C-226.84669898 411.18785151 -231.50367995 419.45796842 -236.125 427.75 C-241.22214598 436.89445571 -246.44998746 445.95359092 -251.75048828 454.98144531 C-255.92289313 462.10585862 -259.98512944 469.28577947 -264 476.5 C-269.13631389 485.72931402 -274.40212535 494.87236973 -279.75 503.98046875 C-283.92243959 511.1052819 -287.98495244 518.28546141 -292 525.5 C-297.13631389 534.72931402 -302.40212535 543.87236973 -307.75 552.98046875 C-311.92243959 560.1052819 -315.98495244 567.28546141 -320 574.5 C-325.13631389 583.72931402 -330.40212535 592.87236973 -335.75 601.98046875 C-340.52958103 610.14203011 -345.15348864 618.38444983 -349.75219727 626.64892578 C-353.72815635 633.77628267 -357.80163998 640.83939092 -361.9375 647.875 C-367.57217244 657.46405018 -372.99967294 667.15568572 -378.37231445 676.89355469 C-383.23735685 685.68734591 -388.248554 694.38772456 -393.34570312 703.04882812 C-394.40941802 704.8565065 -395.46794281 706.667252 -396.52050781 708.48144531 C-397.47786147 710.11115824 -398.46023231 711.72653793 -399.47167969 713.32324219 C-402.75073534 718.68662241 -404.78731389 723.62334948 -404 730 C-402.44529734 734.17108116 -400.25725377 737.83665973 -397.9375 741.625 C-397.30062256 742.71111572 -396.66374512 743.79723145 -396.00756836 744.91625977 C-394.67811155 747.17880648 -393.33788754 749.43505881 -391.98730469 751.68505859 C-389.54039437 755.76664929 -387.15407141 759.88164756 -384.76806641 763.99902344 C-383.04113698 766.97430579 -381.30315162 769.94288391 -379.5625 772.91015625 C-375.8678669 779.21570419 -372.21147319 785.54294436 -368.5625 791.875 C-367.62869507 793.49523071 -367.62869507 793.49523071 -366.67602539 795.14819336 C-365.41423174 797.33796334 -364.15259466 799.52782355 -362.89111328 801.71777344 C-361.01051894 804.98174327 -359.12859454 808.24494189 -357.24609375 811.5078125 C-356.62718262 812.5805542 -356.00827148 813.6532959 -355.37060547 814.75854492 C-354.12906402 816.90993435 -352.88720488 819.06114048 -351.64501953 821.2121582 C-348.74183646 826.24070909 -345.84230156 831.27124054 -342.95724487 836.31021118 C-341.94122816 838.08432545 -340.92393072 839.85769919 -339.90625 841.63085938 C-338.63417708 843.84815314 -337.36447715 846.06681075 -336.09765625 848.28710938 C-332.61462045 854.35146171 -328.97151264 860.24280382 -325 866 C-322.20436225 863.50615208 -320.56746596 860.74784919 -318.734375 857.49609375 C-318.09935059 856.3762207 -317.46432617 855.25634766 -316.81005859 854.10253906 C-316.47480164 853.50606567 -316.13954468 852.90959229 -315.79412842 852.29504395 C-314.73381762 850.40871093 -313.66780633 848.52570916 -312.60009766 846.64355469 C-311.49354106 844.69286855 -310.38728903 842.74201842 -309.28274536 840.79019165 C-305.67986531 834.42430913 -302.0335817 828.08405216 -298.375 821.75 C-297.75850586 820.68193115 -297.14201172 819.6138623 -296.50683594 818.51342773 C-291.78503879 810.34084794 -287.03136582 802.18709875 -282.26904297 794.03808594 C-277.98732286 786.70658767 -273.73770924 779.35701275 -269.5 772 C-264.69148156 763.65201541 -259.86094317 755.31756816 -255 747 C-247.61585107 734.36256546 -240.30509865 721.68324702 -233 709 C-225.12337411 695.32445686 -217.22879908 681.66039042 -209.26708984 668.03417969 C-202.46412377 656.38340815 -195.73357814 644.69096256 -189 633 C-181.12337411 619.32445686 -173.22879908 605.66039042 -165.26708984 592.03417969 C-158.46412377 580.38340815 -151.73357814 568.69096256 -145 557 C-137.12419276 543.3258782 -129.23144154 529.66263026 -121.26928711 516.03857422 C-116.98755083 508.70687521 -112.73779993 501.35717019 -108.5 494 C-103.69148156 485.65201541 -98.86094317 477.31756816 -94 469 C-86.61585107 456.36256546 -79.30509865 443.68324702 -72 431 C-64.12337411 417.32445686 -56.22879908 403.66039042 -48.26708984 390.03417969 C-42.11967697 379.50610971 -36.03310458 368.94320951 -29.94824219 358.37890625 C-27.89833984 354.82368714 -25.84418356 351.27095346 -23.7890625 347.71875 C-22.75576254 345.93167037 -21.72257004 344.14452866 -20.68942261 342.35736084 C-19.70915502 340.66244233 -18.72775912 338.96817655 -17.74633789 337.27392578 C-17.15328857 336.2476709 -16.56023926 335.22141602 -15.94921875 334.1640625 C-15.16550903 332.80982178 -15.16550903 332.80982178 -14.3659668 331.42822266 C-13.50434963 329.89656147 -12.68184684 328.34159871 -11.91723633 326.75927734 C-11 325 -11 325 -9.375 323.6875 C-5.71083479 322.6268206 -2.52204631 322.58752198 1 324 C2.84130337 326.63179395 4.42059836 329.21316398 6 332 C7.2138035 334.05920728 8.42874348 336.11774489 9.64453125 338.17578125 C10.67370893 339.93374881 11.70054271 341.69307102 12.72714233 343.45254517 C14.60953093 346.6783553 16.49601401 349.90176779 18.3828125 353.125 C18.96113075 354.11304375 18.96113075 354.11304375 19.5511322 355.12104797 C23.40475506 361.69985856 27.29396023 368.25724518 31.1875 374.8125 C37.30136094 385.11129353 43.35702579 395.44245474 49.3828125 405.79296875 C53.34598523 412.59900201 57.32805381 419.3939101 61.3125 426.1875 C61.6670224 426.79197968 62.0215448 427.39645935 62.3868103 428.01925659 C63.83027549 430.48036781 65.27377376 432.94145961 66.71739197 435.40248108 C69.28068618 439.7725672 71.84195853 444.14383401 74.40234375 448.515625 C80.75069636 459.35415262 87.10280758 470.1901896 93.5 481 C100.2527762 492.41066669 106.9553646 503.85056502 113.65545654 515.29220581 C116.32913539 519.85711903 119.00760836 524.4192007 121.6875 528.98046875 C122.83777099 530.93923099 123.98793957 532.89805332 125.13806152 534.85690308 C125.86824679 536.10005772 126.59878572 537.34300472 127.32971191 538.58572388 C128.35098595 540.32220432 129.37082647 542.05952761 130.390625 543.796875 C130.96844727 544.78010742 131.54626953 545.76333984 132.14160156 546.77636719 C134.47503459 550.82400904 136.73103827 554.91586889 139 559 C192.46 559 245.92 559 301 559 C291.30380084 541.22363487 281.53874388 523.51465855 271.27148438 506.06176758 C266.89852087 498.60355808 262.67669984 491.06962923 258.5 483.5 C253.7509371 474.89397014 248.91715278 466.34975791 243.9375 457.875 C238.63997691 448.85926584 233.48203492 439.77525321 228.39257812 430.640625 C223.95823989 422.68939782 219.46250529 414.77480953 214.9375 406.875 C210.10095486 398.43012891 205.28011451 389.97698439 200.5 381.5 C195.69647069 372.98284923 190.85659131 364.48695659 186 356 C180.61548335 346.59048701 175.25935275 337.16558554 169.93359375 327.72265625 C165.6492809 320.1330013 161.32866634 312.56440081 157 305 C151.61548335 295.59048701 146.25935275 286.16558554 140.93359375 276.72265625 C136.6492809 269.1330013 132.32866634 261.56440081 128 254 C122.61548335 244.59048701 117.25935275 235.16558554 111.93359375 225.72265625 C107.6492809 218.1330013 103.32866634 210.56440081 99 203 C94.14340812 194.51304243 89.30370449 186.01705263 84.5 177.5 C79.75518604 169.089241 74.98082005 160.69568932 70.1875 152.3125 C69.85284729 151.7271347 69.51819458 151.14176941 69.17340088 150.53866577 C65.76332996 144.57436841 62.35069331 138.61154488 58.93510437 132.65040588 C57.24760969 129.70489112 55.56107525 126.75882747 53.875 123.8125 C53.37657089 122.94167282 53.37657089 122.94167282 52.86807251 122.05325317 C48.15384494 113.81306722 43.49652332 105.54252977 38.875 97.25 C33.80902321 88.16013709 28.61012035 79.1577096 23.33520508 70.18774414 C18.14456203 61.32661132 13.16089828 52.35733271 8.23657227 43.34619141 C4.42567738 36.41220882 0.56127621 29.47612497 -4 23 C-4.33 23 -4.66 23 -5 23 Z M-5 341 C-12.20114942 353.31364649 -19.38021413 365.63911799 -26.5 378 C-31.87912844 387.33863926 -37.29259448 396.6564032 -42.73046875 405.9609375 C-47.01222122 413.29283723 -51.26210939 420.64267238 -55.5 428 C-60.30851844 436.34798459 -65.13905683 444.68243184 -70 453 C-77.38414893 465.63743454 -84.69490135 478.31675298 -92 491 C-99.87662589 504.67554314 -107.77120092 518.33960958 -115.73291016 531.96582031 C-122.53587623 543.61659185 -129.26642186 555.30903744 -136 567 C-143.87662589 580.67554314 -151.77120092 594.33960958 -159.73291016 607.96582031 C-166.53587623 619.61659185 -173.26642186 631.30903744 -180 643 C-187.87662589 656.67554314 -195.77120092 670.33960958 -203.73291016 683.96582031 C-210.53587623 695.61659185 -217.26642186 707.30903744 -224 719 C-231.87580724 732.6741218 -239.76855846 746.33736974 -247.73071289 759.96142578 C-252.01244917 767.29312479 -256.26220007 774.64282981 -260.5 782 C-265.30851844 790.34798459 -270.13905683 798.68243184 -275 807 C-281.09132781 817.42486509 -287.13534965 827.87641099 -293.16015625 838.33984375 C-295.49192436 842.38861368 -297.82983862 846.43369126 -300.17622375 850.47399902 C-301.57399424 852.88107881 -302.96979939 855.28929563 -304.36550903 857.6975708 C-305.35563915 859.40413021 -306.34856851 861.10906455 -307.34155273 862.81396484 C-307.93782471 863.84344238 -308.53409668 864.87291992 -309.1484375 865.93359375 C-309.67614746 866.84165771 -310.20385742 867.74972168 -310.74755859 868.68530273 C-312.1121051 871.04741501 -312.1121051 871.04741501 -313 874 C-236.71982684 874.06853503 -160.43964997 874.13213609 -84.15945435 874.16937256 C-83.03108292 874.16992479 -81.90271149 874.17047702 -80.74014699 874.17104598 C-56.21956286 874.18301668 -31.69897841 874.19409754 -7.17839348 874.20426132 C4.84591484 874.20925081 16.87022306 874.214437 28.89453125 874.21972656 C30.68940791 874.22051112 30.68940791 874.22051112 32.52054471 874.22131152 C71.32856784 874.23836705 110.13656772 874.26841984 148.94457675 874.30518888 C188.81375844 874.34289488 228.68292725 874.36753611 268.55212647 874.37565996 C274.17906737 874.37681264 279.80600822 874.37811518 285.43294907 874.37950897 C286.54044806 874.37977866 287.64794706 874.38004836 288.78900663 874.38032622 C306.64063643 874.38505922 324.49222652 874.40362795 342.3438401 874.42732814 C360.27623311 874.45084184 378.20858661 874.45988078 396.1409945 874.45400551 C406.80435746 874.45095551 417.46757618 874.4591425 428.13091318 874.48319017 C435.24646126 874.4981454 442.36191447 874.49868605 449.477469 874.48732725 C453.53670884 874.48126531 457.59567518 874.48163991 461.65488614 874.49953273 C465.34525634 874.51567672 469.03513869 874.5135219 472.72550108 874.4965599 C474.683224 874.49233999 476.64095884 874.50782741 478.59861922 874.5240339 C484.9991459 874.47450488 489.19414647 874.43252359 494 870 C495.96510002 867.72136429 495.96510002 867.72136429 497.55859375 865.1328125 C498.1837085 864.17640869 498.80882324 863.22000488 499.45288086 862.23461914 C500.10780518 861.20844482 500.76272949 860.18227051 501.4375 859.125 C502.86346912 856.93807517 504.29057701 854.75189248 505.71875 852.56640625 C506.43546875 851.46312988 507.1521875 850.35985352 507.890625 849.22314453 C511.0087376 844.4586396 514.21719706 839.75829034 517.4375 835.0625 C518.67855717 833.24751326 519.91944045 831.43240761 521.16015625 829.6171875 C521.7855127 828.70291992 522.41086914 827.78865234 523.05517578 826.84667969 C526.50348712 821.7993146 529.93879913 816.74311403 533.375 811.6875 C534.08245361 810.6469043 534.78990723 809.60630859 535.51879883 808.53417969 C537.67933612 805.35621283 539.83969384 802.17812398 542 799 C547.66519992 790.66566846 553.33143502 782.33204325 559 774 C559.68964844 772.98615234 560.37929688 771.97230469 561.08984375 770.92773438 C563.10079375 767.97213206 565.1127357 765.01720761 567.125 762.0625 C568.01179443 760.75889526 568.01179443 760.75889526 568.91650391 759.42895508 C569.48288574 758.59775146 570.04926758 757.76654785 570.6328125 756.91015625 C571.45313965 755.70576904 571.45313965 755.70576904 572.29003906 754.47705078 C573.50634717 752.71510589 574.73928968 750.96459404 575.98339844 749.22216797 C576.62567383 748.32256348 577.26794922 747.42295898 577.9296875 746.49609375 C578.51733887 745.68197021 579.10499023 744.86784668 579.71044922 744.02905273 C581.1787942 742.11936873 581.1787942 742.11936873 581 740 C520.39395413 739.9657372 459.78790717 739.93393603 399.18185425 739.91531372 C398.28553729 739.91503761 397.38922032 739.91476149 396.46574224 739.91447701 C376.98856386 739.90849185 357.51138539 739.90295139 338.03420676 739.89786934 C328.4832537 739.89537457 318.93230067 739.89278147 309.38134766 739.89013672 C308.43088922 739.8898752 307.48043079 739.88961368 306.50117058 739.88934424 C275.66799543 739.88081439 244.83482758 739.86578645 214.00165685 739.84740556 C182.3289951 739.82855841 150.6563374 739.81623331 118.98367013 739.81217002 C114.51495036 739.81159367 110.04623059 739.8109424 105.57751083 739.81024551 C104.25818754 739.81004324 104.25818754 739.81004324 102.91221126 739.80983689 C88.72706614 739.80746913 74.5419335 739.79818139 60.35679348 739.78633593 C46.11219825 739.77458741 31.86761545 739.77005751 17.62301554 739.77299725 C9.14953039 739.77452383 0.67609056 739.7704147 -7.79738645 739.75840491 C-14.10863231 739.75006711 -20.4198339 739.75205275 -26.73108138 739.75820221 C-29.29637715 739.75905354 -31.86167664 739.75646256 -34.42696498 739.75023364 C-37.8918064 739.74230409 -41.35641937 739.74647412 -44.82125664 739.75390434 C-45.83636631 739.74865032 -46.85147598 739.74339629 -47.89734656 739.73798305 C-48.81349448 739.74247763 -49.72964241 739.74697222 -50.67355239 739.75160301 C-51.46686985 739.75129105 -52.2601873 739.75097908 -53.07754468 739.75065767 C-55.23902763 739.83217206 -55.23902763 739.83217206 -57 742 C-60.05757892 742.56075289 -62.93891683 742.52739799 -66 742 C-69.12285081 739.41031884 -69.9017214 737.96313033 -70.3125 733.9375 C-70.1578125 732.4834375 -70.1578125 732.4834375 -70 731 C-69.938125 730.2575 -69.87625 729.515 -69.8125 728.75 C-69.4103125 727.88375 -69.4103125 727.88375 -69 727 C-67.84564453 726.61134766 -67.84564453 726.61134766 -66.66796875 726.21484375 C-63.22696518 724.64800318 -62.39260198 723.06863568 -60.5 719.8125 C-60.0052417 718.97295776 -60.0052417 718.97295776 -59.50048828 718.11645508 C-58.31477966 716.08796075 -57.15596759 714.04558734 -56 712 C-55.53561523 711.18241211 -55.07123047 710.36482422 -54.59277344 709.52246094 C-52.45277711 705.75146287 -50.31877971 701.97718675 -48.19458008 698.19726562 C-44.25833026 691.19599976 -40.2485784 684.24201735 -36.1875 677.3125 C-31.1164799 668.65340049 -26.09813528 659.96561906 -21.125 651.25 C-20.62608749 650.37578903 -20.62608749 650.37578903 -20.11709595 649.48391724 C-17.74316765 645.32350196 -15.37133723 641.16189252 -13 637 C-10.29310624 632.24917808 -7.58529654 627.49888166 -4.875 622.75 C-4.54195862 622.16641724 -4.20891724 621.58283447 -3.86578369 620.98156738 C1.27352667 611.98021232 6.47711291 603.0178681 11.71362305 594.07275391 C16.51435399 585.86056671 21.24149269 577.60722821 25.953125 569.34375 C31.38852814 559.81088911 36.85880922 550.29871731 42.35083008 540.79833984 C45.59537411 535.18139067 48.82804263 529.55803665 52.0390625 523.921875 C52.37677673 523.32926376 52.71449097 522.73665253 53.06243896 522.12608337 C54.41853895 519.74611536 55.77454592 517.36609648 57.12890625 514.98513794 C60.66385195 508.77288241 64.22956191 502.58349709 67.8984375 496.44921875 C68.81085205 494.92312988 68.81085205 494.92312988 69.74169922 493.36621094 C70.8856311 491.46082259 72.03539833 489.55892138 73.19189453 487.66113281 C73.69575684 486.82291992 74.19961914 485.98470703 74.71875 485.12109375 C75.16154297 484.3933374 75.60433594 483.66558105 76.06054688 482.91577148 C77.22014463 480.90669168 77.22014463 480.90669168 77 478 C76.10311814 476.00300398 76.10311814 476.00300398 74.83203125 473.88671875 C74.35805908 473.06300781 73.88408691 472.23929688 73.39575195 471.390625 C72.87327881 470.49859375 72.35080566 469.6065625 71.8125 468.6875 C71.27004639 467.75035156 70.72759277 466.81320312 70.16870117 465.84765625 C65.34057291 457.52688372 60.44236422 449.24696385 55.53515625 440.97265625 C51.58470964 434.30718764 47.66626075 427.62308085 43.75 420.9375 C43.02938197 419.70759874 42.30876021 418.47769966 41.58813477 417.24780273 C39.0235828 412.87045406 36.45979424 408.49265838 33.89599609 404.11486816 C19.50905256 379.52142723 19.50905256 379.52142723 5 355 C4.35949707 353.92371338 4.35949707 353.92371338 3.70605469 352.82568359 C2.58135098 350.94227992 1.44910754 349.06373721 0.3125 347.1875 C-0.28949219 346.19105469 -0.89148438 345.19460938 -1.51171875 344.16796875 C-2.81891595 341.88875509 -2.81891595 341.88875509 -5 341 Z M85 493 C79.59440259 501.66587618 74.40775616 510.42353367 69.375 519.3125 C67.98866875 521.75356728 66.60026834 524.19345133 65.2109375 526.6328125 C64.86335388 527.24325912 64.51577026 527.85370575 64.15765381 528.48265076 C59.89273552 535.96009928 55.53634938 543.38407729 51.16552734 550.80004883 C50.61590332 551.7361499 50.0662793 552.67225098 49.5 553.63671875 C49.0153125 554.45873779 48.530625 555.28075684 48.03125 556.12768555 C46.9195918 557.78973219 46.9195918 557.78973219 47 559 C72.41 559 97.82 559 124 559 C119.96090586 550.87169247 119.96090586 550.87169247 115.5390625 543.03125 C114.90959717 541.97744141 114.28013184 540.92363281 113.6315918 539.83789062 C112.9694165 538.73638672 112.30724121 537.63488281 111.625 536.5 C110.20451033 534.12650037 108.78712986 531.75115898 107.37109375 529.375 C107.01136978 528.77167847 106.65164581 528.16835693 106.28102112 527.54675293 C103.72090794 523.2415836 101.20882758 518.91074025 98.72265625 514.5625 C98.38071228 513.96514038 98.03876831 513.36778076 97.6864624 512.75231934 C96.04636645 509.88473019 94.4124272 507.01383796 92.78564453 504.13867188 C92.20024902 503.11322266 91.61485352 502.08777344 91.01171875 501.03125 C90.24541138 499.67870117 90.24541138 499.67870117 89.46362305 498.29882812 C88.13638255 496.21420819 86.82540545 494.64976156 85 493 Z " fill="#FFFFFF" transform="translate(422,68)"/>
</svg>
