<?xml version="1.0" encoding="UTF-8"?>
<svg version="1.1" xmlns="http://www.w3.org/2000/svg" width="1563" height="1563">
<path d="M0 0 C2.00803493 0.29981114 2.00803493 0.29981114 4.23831558 0.25447559 C5.10733733 0.26030779 5.97635909 0.26613998 6.87171483 0.27214891 C8.30471398 0.26647992 8.30471398 0.26647992 9.7666626 0.26069641 C10.78109145 0.26452196 11.7955203 0.26834751 12.84068942 0.27228898 C16.25614962 0.28264707 19.6714426 0.27862145 23.08691406 0.2746582 C25.52917131 0.27900319 27.97142719 0.28418562 30.41368103 0.29014587 C36.36934192 0.30217589 42.32493654 0.30468416 48.2806035 0.30234561 C53.12220137 0.30056385 57.96378554 0.30230906 62.80538177 0.30657005 C63.8383379 0.30746284 63.8383379 0.30746284 64.89216183 0.30837366 C66.29109011 0.3095854 67.69001839 0.31079953 69.08894667 0.31201603 C82.21661382 0.3228993 95.34425531 0.32072574 108.47192392 0.31463119 C120.47860955 0.30946498 132.48521398 0.32070822 144.49188355 0.33972941 C156.81932529 0.35910899 169.14672863 0.36736336 181.47418571 0.36360615 C188.39541783 0.36169382 195.31658089 0.36418449 202.2378006 0.37832069 C208.74829824 0.39148323 215.2586603 0.38897269 221.76916695 0.37590981 C224.1592648 0.37354013 226.54937402 0.37629264 228.93945885 0.38453293 C232.20162964 0.39496899 235.46325188 0.38692437 238.72540283 0.3742218 C240.14501765 0.38528323 240.14501765 0.38528323 241.59331155 0.39656812 C247.19930849 0.35063062 250.97877357 -0.5088657 256 -3 C260.80924675 -3.38274282 265.28389182 -2.07906106 269 1 C271.26893447 4.4034017 272.06249038 7.02658358 272.19140625 11.0234375 C272.83283124 17.22304224 275.94973165 21.79705979 279.1875 27 C280.46966244 29.12496746 281.74953999 31.25131495 283.02734375 33.37890625 C283.68589355 34.4683252 284.34444336 35.55774414 285.02294922 36.68017578 C288.21248178 42.0359752 291.2289621 47.48545437 294.25 52.9375 C298.42728675 60.44128246 302.66088628 67.89932642 307.04541016 75.28369141 C310.97596037 81.91954229 314.80328116 88.61353618 318.625 95.3125 C319.13568024 96.20758774 319.13568024 96.20758774 319.65667725 97.12075806 C321.40619078 100.18772965 323.15492207 103.25514641 324.90332031 106.32275391 C328.26387394 112.21802837 331.63234677 118.10877939 335 124 C336.33081746 126.32807454 337.66156373 128.65618975 338.9921875 130.984375 C339.32180481 131.56110458 339.65142212 132.13783417 339.99102783 132.73204041 C342.01323562 136.27102744 344.0331214 139.81132919 346.05130005 143.35261536 C347.74179075 146.31883394 349.43315935 149.2845512 351.125 152.25 C351.45755798 152.8329483 351.79011597 153.41589661 352.13275146 154.01651001 C356.74788047 162.10245969 361.41621812 170.15572771 366.125 178.1875 C371.45362814 187.27795581 376.6291316 196.44575529 381.75488281 205.65185547 C386.27590565 213.75317578 390.92174004 221.77512259 395.61376953 229.77832031 C400.08278832 237.40798976 404.49348885 245.06984655 408.875 252.75 C409.20803131 253.33365326 409.54106262 253.91730652 409.88418579 254.51864624 C411.57799047 257.48759504 413.27095762 260.45702023 414.96337891 263.42675781 C418.32652051 269.32801689 421.69378067 275.2269235 425.0625 281.125 C425.39393005 281.70536011 425.72536011 282.28572021 426.0668335 282.88366699 C430.85607663 291.26841262 435.66948791 299.6389612 440.5 308 C445.66823094 316.94558975 450.81431341 325.90354844 455.9375 334.875 C456.26894012 335.45538025 456.60038025 336.0357605 456.94186401 336.63372803 C459.63234108 341.3455141 462.32138652 346.05811682 465.01037598 350.77075195 C467.36041657 354.88921585 469.7110209 359.00735725 472.0625 363.125 C472.39402069 363.70554138 472.72554138 364.28608276 473.06710815 364.88421631 C477.85626544 373.26877531 482.6695903 381.63913843 487.5 390 C492.66823094 398.94558975 497.81431341 407.90354844 502.9375 416.875 C503.26894012 417.45538025 503.60038025 418.0357605 503.94186401 418.63372803 C506.63234108 423.3455141 509.32138652 428.05811682 512.01037598 432.77075195 C514.36041657 436.88921585 516.7110209 441.00735725 519.0625 445.125 C519.39402069 445.70554138 519.72554138 446.28608276 520.06710815 446.88421631 C524.85626544 455.26877531 529.6695903 463.63913843 534.5 472 C539.66823094 480.94558975 544.81431341 489.90354844 549.9375 498.875 C550.26894012 499.45538025 550.60038025 500.0357605 550.94186401 500.63372803 C553.63234108 505.3455141 556.32138652 510.05811682 559.01037598 514.77075195 C561.36041657 518.88921585 563.7110209 523.00735725 566.0625 527.125 C566.39402069 527.70554138 566.72554138 528.28608276 567.06710815 528.88421631 C571.85626544 537.26877531 576.6695903 545.63913843 581.5 554 C586.66823143 562.94559059 591.81416306 571.90363381 596.9375 580.875 C597.26860779 581.45471558 597.59971558 582.03443115 597.94085693 582.63171387 C601.31521064 588.54016638 604.68690462 594.45013089 608.05583191 600.36167908 C609.74476211 603.32490498 611.43465122 606.28758312 613.125 609.25 C613.62370102 610.12415054 613.62370102 610.12415054 614.13247681 611.01596069 C618.74769243 619.10209693 623.4161144 627.15555079 628.125 635.1875 C633.45362814 644.27795581 638.6291316 653.44575529 643.75488281 662.65185547 C648.27590565 670.75317578 652.92174004 678.77512259 657.61376953 686.77832031 C662.08278735 694.4079881 666.49361631 702.06977486 670.875 709.75 C671.20836365 710.33431793 671.54172729 710.91863586 671.88519287 711.5206604 C673.5800349 714.4919198 675.27407984 717.46363272 676.96777344 720.43554688 C679.97480863 725.71111047 682.98877937 730.9827106 686.00228882 736.25457764 C687.66707936 739.16700631 689.33162965 742.07957225 690.99609375 744.9921875 C691.32589737 745.56929474 691.65570099 746.14640198 691.99549866 746.74099731 C694.00661453 750.26050379 696.01657378 753.78066812 698.02566528 757.30133057 C704.82477958 769.21576145 711.63753173 781.12188804 718.5 793 C723.66823094 801.94558975 728.81431341 810.90354844 733.9375 819.875 C734.26894012 820.45538025 734.60038025 821.0357605 734.94186401 821.63372803 C737.63234108 826.3455141 740.32138652 831.05811682 743.01037598 835.77075195 C745.36041657 839.88921585 747.7110209 844.00735725 750.0625 848.125 C750.39402069 848.70554138 750.72554138 849.28608276 751.06710815 849.88421631 C755.85626544 858.26877531 760.6695903 866.63913843 765.5 875 C770.66823143 883.94559059 775.81416306 892.90363381 780.9375 901.875 C781.26860779 902.45471558 781.59971558 903.03443115 781.94085693 903.63171387 C785.31521064 909.54016638 788.68690462 915.45013089 792.05583191 921.36167908 C793.74476211 924.32490498 795.43465122 927.28758312 797.125 930.25 C797.62370102 931.12415054 797.62370102 931.12415054 798.13247681 932.01596069 C802.74769243 940.10209693 807.4161144 948.15555079 812.125 956.1875 C817.45362814 965.27795581 822.6291316 974.44575529 827.75488281 983.65185547 C832.27014523 991.74285356 836.9092104 999.75509254 841.59619141 1007.74755859 C848.17876405 1018.98336085 854.63066708 1030.29327736 861.06542969 1041.61425781 C862.45236876 1044.04157622 863.84812814 1046.46217375 865.25488281 1048.87792969 C865.6258609 1049.51814056 865.99683899 1050.15835144 866.37905884 1050.81796265 C867.09704825 1052.05635114 867.81841476 1053.29278936 868.54354858 1054.52700806 C871 1058.77535436 871 1058.77535436 871 1061 C871.7425 1061.061875 872.485 1061.12375 873.25 1061.1875 C876.86782848 1062.25640387 877.93843714 1063.90765572 880 1067 C881.5446194 1071.63385819 881.48978632 1075.46941774 880 1080.125 C878.00779943 1082.98878832 877.15325708 1083.61084385 874.22265625 1085.18359375 C869.58261901 1088.00169251 867.23287578 1091.36640413 864.4375 1095.9375 C863.40006705 1097.56093832 862.36092718 1099.18328681 861.3203125 1100.8046875 C860.78051758 1101.65514648 860.24072266 1102.50560547 859.68457031 1103.38183594 C856.81795404 1107.83713926 853.81076766 1112.1951927 850.8125 1116.5625 C849.53734947 1118.4281046 848.26261829 1120.29399589 846.98828125 1122.16015625 C846.33811035 1123.11164551 845.68793945 1124.06313477 845.01806641 1125.04345703 C841.50471286 1130.19065173 838.00284425 1135.3456503 834.5 1140.5 C827.29045857 1151.10596039 820.06952405 1161.70410017 812.84277344 1172.29833984 C809.72783713 1176.86509728 806.61397822 1181.43258924 803.5 1186 C802.25000505 1187.83333678 801.00000505 1189.66667011 799.75 1191.5 C799.13125 1192.4075 798.5125 1193.315 797.875 1194.25 C762.25 1246.5 762.25 1246.5 760.37182617 1249.25292969 C759.13026023 1251.07503741 757.89081597 1252.89859275 756.65356445 1254.72363281 C753.41599892 1259.49316538 750.13844838 1264.22727511 746.79296875 1268.921875 C745.76236328 1270.38560547 745.76236328 1270.38560547 744.7109375 1271.87890625 C743.40290078 1273.7349043 742.08208421 1275.58198991 740.74609375 1277.41796875 C737.17901002 1282.51269486 735.20460554 1286.60586557 734.50756836 1292.82495117 C733.71627658 1296.21582104 731.73970397 1297.92970209 728.99609375 1299.9375 C725.4758544 1301.81128689 723.02429116 1302.06387764 719 1302 C718.10044201 1301.51146692 717.20088401 1301.02293383 716.27406668 1300.51959672 C712.32162769 1298.6851462 708.94267044 1298.58391247 704.67743307 1298.62395251 C703.43497344 1298.61764208 703.43497344 1298.61764208 702.16741361 1298.61120417 C699.38008046 1298.60072974 696.59324291 1298.61169194 693.80591679 1298.62247658 C691.78351849 1298.61934818 689.76112188 1298.61490518 687.73872903 1298.60926348 C682.15134384 1298.59752856 676.56411314 1298.60459872 670.97673033 1298.61459734 C664.90942325 1298.6221793 658.84214061 1298.6124389 652.77483696 1298.60486734 C642.13116116 1298.59400767 631.48753671 1298.59427499 620.84386253 1298.60200882 C609.42139996 1298.61025802 597.99896411 1298.61200728 586.57649994 1298.60579681 C585.85547114 1298.6054093 585.13444233 1298.60502178 584.39156417 1298.60462252 C581.45500116 1298.60302273 578.51843818 1298.60137661 575.58187523 1298.59967169 C548.21884497 1298.58379629 520.85583263 1298.58273086 493.49279976 1298.59111404 C492.68167364 1298.59136243 491.87054753 1298.59161082 491.03484183 1298.59186673 C489.8162121 1298.59223991 489.8162121 1298.59223991 488.57296358 1298.59262064 C463.83930426 1298.60018497 439.10565235 1298.60214679 414.37199211 1298.5985527 C412.71682047 1298.59832027 411.06164882 1298.5980888 409.40647717 1298.59785829 C402.75530507 1298.59692692 396.10413298 1298.59597092 389.45296088 1298.594979 C370.85916107 1298.59222773 352.26536123 1298.59051611 333.67156124 1298.58962059 C332.82478375 1298.58957965 331.97800626 1298.58953872 331.10556884 1298.58949654 C304.1162972 1298.58826838 277.12702814 1298.59165105 250.1377573 1298.59816933 C248.82435522 1298.59848545 248.82435522 1298.59848545 247.48441977 1298.59880795 C233.26451551 1298.60224295 219.0446113 1298.60590127 204.8247071 1298.60957848 C148.42666933 1298.62414724 92.02865292 1298.62347227 35.63061523 1298.60888672 C21.41913893 1298.60522325 7.20766262 1298.60159014 -7.00381374 1298.59816933 C-7.87882596 1298.59795798 -8.75383817 1298.59774664 -9.65536591 1298.59752889 C-36.61516698 1298.59106177 -63.57496628 1298.58831724 -90.5347681 1298.58962059 C-91.38094015 1298.58966134 -92.2271122 1298.5897021 -93.09892583 1298.58974408 C-111.6725554 1298.59068146 -130.24618479 1298.59258226 -148.81981418 1298.5953521 C-155.46541651 1298.59633956 -162.11101884 1298.59727879 -168.75662117 1298.59820423 C-170.40992702 1298.5984364 -172.06323286 1298.59867259 -173.71653871 1298.59891282 C-198.4439614 1298.60249589 -223.17137575 1298.59943983 -247.89879741 1298.59186673 C-248.70984073 1298.59161834 -249.52088405 1298.59136996 -250.35650444 1298.59111404 C-251.16605655 1298.590866 -251.97560867 1298.59061795 -252.80969266 1298.59036239 C-280.09361416 1298.58209401 -307.37751414 1298.58511871 -334.66143256 1298.60095628 C-337.58932131 1298.60261339 -340.51721008 1298.6042235 -343.44509888 1298.60579681 C-344.52295359 1298.60638274 -344.52295359 1298.60638274 -345.62258315 1298.60698051 C-357.01548045 1298.61290516 -368.40835107 1298.60877003 -379.80124597 1298.6004898 C-390.9950631 1298.59256741 -402.18883539 1298.59556878 -413.38265044 1298.60953206 C-419.37424599 1298.6167004 -425.36574 1298.61904246 -431.35733252 1298.60831411 C-436.80214325 1298.59866376 -442.24676184 1298.6026813 -447.69155842 1298.61785609 C-449.65467359 1298.62089122 -451.61780448 1298.61884366 -453.58090727 1298.61123828 C-456.23820109 1298.60166961 -458.89482155 1298.61047914 -461.55208391 1298.62395251 C-462.69452243 1298.61319417 -462.69452243 1298.61319417 -463.86004051 1298.60221849 C-469.0426353 1298.65589363 -472.42179903 1299.80889325 -477 1302 C-481.1105874 1302.39114586 -484.36996008 1301.39719908 -487.875 1299.1875 C-491.00681926 1295.96356841 -492.14624874 1293.46534222 -492.20703125 1289.00390625 C-492.83322604 1282.45756708 -496.32899739 1277.45101415 -499.6875 1271.9375 C-500.37073395 1270.78935812 -501.05234667 1269.64025009 -501.73242188 1268.49023438 C-503.12961547 1266.13192493 -504.53473287 1263.77864556 -505.94677734 1261.42919922 C-509.01028768 1256.31266341 -512.00323193 1251.15579934 -515 1246 C-516.1573431 1244.01810712 -517.31489676 1242.03633717 -518.47265625 1240.0546875 C-524.05468429 1230.48505171 -529.57906077 1220.88208425 -535.10888672 1211.28222656 C-538.23680148 1205.85340058 -541.36858448 1200.42680719 -544.5 1195 C-545.75001879 1192.83334417 -547.00001878 1190.6666775 -548.25 1188.5 C-548.86875 1187.4275 -549.4875 1186.355 -550.125 1185.25 C-585.75 1123.5 -585.75 1123.5 -587.62719727 1120.24560547 C-588.86919592 1118.09319638 -590.11186466 1115.9411738 -591.35522461 1113.78955078 C-594.26360395 1108.75477462 -597.16547373 1103.71660822 -600.04275513 1098.66400146 C-601.05807658 1096.88180857 -602.07558275 1095.10088088 -603.09375 1093.3203125 C-604.36763063 1091.0910214 -605.63743911 1088.85939631 -606.90234375 1086.625 C-610.25685169 1080.7657928 -613.79158071 1075.28042935 -618 1070 C-621.0371757 1066.05167159 -621.47466553 1063.00824926 -621.28125 1058.140625 C-620.87813852 1055.07249874 -619.98010715 1053.37612857 -618 1051 C-617.11570312 1050.38253906 -616.23140625 1049.76507812 -615.3203125 1049.12890625 C-610.41873287 1045.0829935 -607.92592063 1039.20905139 -605 1033.6875 C-603.67357402 1031.2326233 -602.33823449 1028.78261943 -601.00390625 1026.33203125 C-600.66855362 1025.71320068 -600.33320099 1025.09437012 -599.98768616 1024.45678711 C-596.76381145 1018.52158282 -593.36953479 1012.69206577 -589.9375 1006.875 C-585.19091943 998.80407779 -580.55267001 990.68186725 -576 982.5 C-571.44730708 974.31809158 -566.80751931 966.1968643 -562.0625 958.125 C-557.08266605 949.65034985 -552.24910897 941.10599823 -547.5 932.5 C-542.19787678 922.89186858 -536.76039135 913.37821068 -531.19921875 903.91796875 C-527.04099732 896.82838852 -522.9963387 889.68193905 -519 882.5 C-513.86374835 873.27065229 -508.59787376 864.12762875 -503.25 855.01953125 C-499.07756041 847.8947181 -495.01504756 840.71453859 -491 833.5 C-485.86368611 824.27068598 -480.59787465 815.12763027 -475.25 806.01953125 C-471.07756041 798.8947181 -467.01504756 791.71453859 -463 784.5 C-457.86368611 775.27068598 -452.59787465 766.12763027 -447.25 757.01953125 C-443.07756041 749.8947181 -439.01504756 742.71453859 -435 735.5 C-429.86368611 726.27068598 -424.59787465 717.12763027 -419.25 708.01953125 C-415.07756041 700.8947181 -411.01504756 693.71453859 -407 686.5 C-401.86368611 677.27068598 -396.59787465 668.12763027 -391.25 659.01953125 C-387.07756041 651.8947181 -383.01504756 644.71453859 -379 637.5 C-374.42427808 629.27799968 -369.76412217 621.1142901 -365 613 C-359.68160725 603.93815741 -354.50128891 594.80807301 -349.38623047 585.63012695 C-345.012484 577.78903143 -340.58512833 569.97969078 -336.125 562.1875 C-335.79163635 561.60504517 -335.45827271 561.02259033 -335.11480713 560.42248535 C-333.42126286 557.46406468 -331.72692174 554.50610134 -330.03222656 551.54833984 C-327.01631711 546.28378943 -324.00739789 541.015245 -320.99798584 535.74697876 C-319.33228029 532.83115361 -317.66611686 529.91559013 -316 527 C-315.33333114 525.83333459 -314.66666448 524.66666792 -314 523.5 C-281 465.75 -248 408 -214 348.5 C-213.67001007 347.92251511 -213.34002014 347.34503021 -213.00003052 346.75004578 C-212.33327089 345.58322151 -211.6665025 344.41640226 -210.99972534 343.24958801 C-209.33440912 340.33537354 -207.66924463 337.42107258 -206.00439453 334.5065918 C-202.98845394 329.22724336 -199.97137659 323.94856056 -196.94869995 318.67306519 C-195.2567216 315.71996984 -193.56562536 312.76637011 -191.875 309.8125 C-191.54244202 309.23149536 -191.20988403 308.65049072 -190.86724854 308.05187988 C-186.15330102 299.81214849 -181.49632005 291.54203158 -176.875 283.25 C-171.77785402 274.10554429 -166.55001254 265.04640908 -161.24951172 256.01855469 C-157.07710687 248.89414138 -153.01487056 241.71422053 -149 234.5 C-143.86368611 225.27068598 -138.59787465 216.12763027 -133.25 207.01953125 C-129.07756041 199.8947181 -125.01504756 192.71453859 -121 185.5 C-115.86368611 176.27068598 -110.59787465 167.12763027 -105.25 158.01953125 C-101.07756041 150.8947181 -97.01504756 143.71453859 -93 136.5 C-87.86368611 127.27068598 -82.59787465 118.12763027 -77.25 109.01953125 C-73.07756041 101.8947181 -69.01504756 94.71453859 -65 87.5 C-59.86943701 78.28101963 -54.61058167 69.14755464 -49.26757812 60.05029297 C-44.32593387 51.61364442 -39.53474874 43.09727004 -34.79296875 34.546875 C-34.25285156 33.57492188 -33.71273437 32.60296875 -33.15625 31.6015625 C-32.63587158 30.66505859 -32.11549316 29.72855469 -31.5793457 28.76367188 C-29.5383202 25.19211387 -27.36409024 21.70996078 -25.15112305 18.24267578 C-23.58168486 15.18501741 -23.37684385 12.42479419 -23.19140625 9.0390625 C-22.89137052 5.84276345 -21.76347849 3.64521773 -20 1 C-13.77282235 -3.63046543 -6.6720991 -4.44806607 0 0 Z M8 21 C8.93299181 22.88696929 9.86845907 24.77271472 10.80493164 26.65795898 C11.32559708 27.70821762 11.84626251 28.75847626 12.38270569 29.84056091 C14.87015265 34.6998726 17.64595742 39.37348032 20.4375 44.0625 C25.59201087 52.80419724 30.60058879 61.61291852 35.5 70.5 C40.22596668 79.06600515 45.03921465 87.56778471 50 96 C55.62396361 105.55946863 61.03655201 115.22294684 66.39453125 124.93359375 C70.49746932 132.34946317 74.70255211 139.69530867 79 147 C84.62396361 156.55946863 90.03655201 166.22294684 95.39453125 175.93359375 C99.49746932 183.34946317 103.70255211 190.69530867 108 198 C113.62396361 207.55946863 119.03655201 217.22294684 124.39453125 226.93359375 C128.49746932 234.34946317 132.70255211 241.69530867 137 249 C142.62396361 258.55946863 148.03655201 268.22294684 153.39453125 277.93359375 C157.49746932 285.34946317 161.70255211 292.69530867 166 300 C171.62396361 309.55946863 177.03655201 319.22294684 182.39453125 328.93359375 C186.49746932 336.34946317 190.70255211 343.69530867 195 351 C200.62396361 360.55946863 206.03655201 370.22294684 211.39453125 379.93359375 C215.49746932 387.34946317 219.70255211 394.69530867 224 402 C229.62396361 411.55946863 235.03655201 421.22294684 240.39453125 430.93359375 C244.49746932 438.34946317 248.70255211 445.69530867 253 453 C258.62396361 462.55946863 264.03655201 472.22294684 269.39453125 481.93359375 C273.49746932 489.34946317 277.70255211 496.69530867 282 504 C287.62396361 513.55946863 293.03655201 523.22294684 298.39453125 532.93359375 C302.49746932 540.34946317 306.70255211 547.69530867 311 555 C316.62396361 564.55946863 322.03655201 574.22294684 327.39453125 583.93359375 C331.49746932 591.34946317 335.70255211 598.69530867 340 606 C345.62396361 615.55946863 351.03655201 625.22294684 356.39453125 634.93359375 C360.49746932 642.34946317 364.70255211 649.69530867 369 657 C374.62396361 666.55946863 380.03655201 676.22294684 385.39453125 685.93359375 C389.49746932 693.34946317 393.70255211 700.69530867 398 708 C403.62396361 717.55946863 409.03655201 727.22294684 414.39453125 736.93359375 C419.04485572 745.3388386 423.8474653 753.64342144 428.71948242 761.92163086 C432.86563336 768.9914473 436.8799889 776.12796019 440.84036255 783.30276489 C443.00330345 787.21805799 445.17899703 791.12628564 447.35351562 795.03515625 C448.38486213 796.89231401 449.41276172 798.75139481 450.43554688 800.61328125 C451.62680671 802.77367126 452.8397034 804.91985553 454.0625 807.0625 C455.00802734 808.75052734 455.00802734 808.75052734 455.97265625 810.47265625 C458.41961464 813.52310341 460.30081311 813.97584495 464 815 C465.3125 817.5 465.3125 817.5 466 820 C466.33 820.66 466.66 821.32 467 822 C467.09555417 823.45579587 467.12984691 824.9160796 467.125 826.375 C467.12757813 827.14585937 467.13015625 827.91671875 467.1328125 828.7109375 C467.00389788 830.9328189 466.61383717 832.86618508 466 835 C465.34 835 464.68 835 464 835 C464 835.66 464 836.32 464 837 C459.48662644 838.76131651 455.84176215 839.43230019 451 839 C450.07785532 838.50755096 449.15571065 838.01510192 448.2056222 837.50773019 C444.59073468 835.80750643 442.18670044 835.60399646 438.21004486 835.56381702 C437.21825318 835.54783925 437.21825318 835.54783925 436.20642531 835.5315387 C433.993136 835.49956365 431.78025856 835.48862887 429.56677246 835.47773743 C427.96288545 835.45923953 426.35901224 835.43951023 424.75515413 835.41865605 C420.34918525 835.36536156 415.94324197 835.33095949 411.53706694 835.299986 C407.75742641 835.27103691 403.97793307 835.23111394 400.19839507 835.19117913 C386.66373526 835.04856683 373.12886623 834.95048695 359.59375 834.86328125 C358.5252548 834.85635851 357.45675959 834.84943577 356.35588574 834.84230325 C335.13189282 834.70596741 313.90780601 834.59045933 292.68352509 834.51011372 C288.01915875 834.49214705 283.35479367 834.47388998 278.69042969 834.45532227 C277.53115528 834.45072332 276.37188088 834.44612437 275.17747694 834.44138607 C256.40103735 834.36425724 237.62661776 834.19362098 218.85121697 833.98592637 C199.56620048 833.77435967 180.28222777 833.65379033 160.99606943 833.61986512 C150.17023609 833.59840302 139.34791415 833.53632327 128.52323914 833.37078285 C119.30306649 833.22987712 110.08693238 833.17068864 100.86572152 833.21742735 C96.1619908 833.23872216 91.46689725 833.22164934 86.76453781 833.09869385 C68.45742707 831.89276884 68.45742707 831.89276884 52.14615822 838.36532569 C47.44271424 844.05431245 44.5636125 850.2766533 42.06542301 857.17803133 C40.63766164 860.95971974 38.73795226 864.18515996 36.625 867.625 C35.41578812 869.74950019 34.20743675 871.87449043 33 874 C28.04891806 882.69553611 23.05610043 891.36495943 18 900 C10.9228234 912.09143579 3.97345905 924.25455282 -2.96337891 936.42675781 C-6.32652044 942.32801676 -9.69368174 948.22698012 -13.0625 954.125 C-13.39359772 954.70469543 -13.72469543 955.28439087 -14.06582642 955.88165283 C-21.95048716 969.68335191 -29.90121304 983.4467541 -37.85449219 997.20898438 C-39.71602671 1000.43068273 -41.5769525 1003.65273155 -43.4375 1006.875 C-44.35535278 1008.46429321 -44.35535278 1008.46429321 -45.29174805 1010.08569336 C-48.603635 1015.82621086 -51.90250254 1021.57387428 -55.18359375 1027.33203125 C-55.531978 1027.94334396 -55.88036224 1028.55465668 -56.23930359 1029.18449402 C-58.31901951 1032.83407304 -58.31901951 1032.83407304 -60.39816284 1036.48397827 C-64.70898398 1044.04922462 -69.06142943 1051.58231367 -73.61474609 1059.00463867 C-75.29398448 1061.33850239 -75.29398448 1061.33850239 -76 1064 C229.58 1064 535.16 1064 850 1064 C848.54877547 1060.37193866 847.12455815 1057.25771216 845.234375 1053.88671875 C844.68152832 1052.89889404 844.12868164 1051.91106934 843.55908203 1050.89331055 C842.96208496 1049.83539307 842.36508789 1048.77747559 841.75 1047.6875 C840.81389893 1046.02231323 840.81389893 1046.02231323 839.85888672 1044.32348633 C835.1146914 1035.91126453 830.27320824 1027.55805102 825.38916016 1019.22631836 C820.91881579 1011.59530566 816.50741662 1003.93174061 812.125 996.25 C811.79196869 995.66634674 811.45893738 995.08269348 811.11581421 994.48135376 C809.42200953 991.51240496 807.72904238 988.54297977 806.03662109 985.57324219 C802.67347949 979.67198311 799.30621933 973.7730765 795.9375 967.875 C795.60606995 967.29463989 795.27463989 966.71427979 794.9331665 966.11633301 C790.14392337 957.73158738 785.33051209 949.3610388 780.5 941 C775.33176906 932.05441025 770.18568659 923.09645156 765.0625 914.125 C764.73105988 913.54461975 764.39961975 912.9642395 764.05813599 912.36627197 C761.36765892 907.6544859 758.67861348 902.94188318 755.98962402 898.22924805 C753.63958343 894.11078415 751.2889791 889.99264275 748.9375 885.875 C748.44021896 885.00418793 748.44021896 885.00418793 747.93289185 884.11578369 C743.14373456 875.73122469 738.3304097 867.36086157 733.5 859 C728.33176906 850.05441025 723.18568659 841.09645156 718.0625 832.125 C717.73105988 831.54461975 717.39961975 830.9642395 717.05813599 830.36627197 C714.36765892 825.6544859 711.67861348 820.94188318 708.98962402 816.22924805 C706.63958343 812.11078415 704.2889791 807.99264275 701.9375 803.875 C701.44021896 803.00418793 701.44021896 803.00418793 700.93289185 802.11578369 C696.14373456 793.73122469 691.3304097 785.36086157 686.5 777 C681.33176857 768.05440941 676.18583694 759.09636619 671.0625 750.125 C670.73139221 749.54528442 670.40028442 748.96556885 670.05914307 748.36828613 C666.68478936 742.45983362 663.31309538 736.54986911 659.94416809 730.63832092 C658.25523789 727.67509502 656.56534878 724.71241688 654.875 721.75 C654.37629898 720.87584946 654.37629898 720.87584946 653.86752319 719.98403931 C649.25230757 711.89790307 644.5838856 703.84444921 639.875 695.8125 C634.54637186 686.72204419 629.3708684 677.55424471 624.24511719 668.34814453 C619.72409435 660.24682422 615.07825996 652.22487741 610.38623047 644.22167969 C605.91721265 636.5920119 601.50638369 628.93022514 597.125 621.25 C596.79163635 620.66568207 596.45827271 620.08136414 596.11480713 619.4793396 C594.4199651 616.5080802 592.72592016 613.53636728 591.03222656 610.56445312 C588.02519137 605.28888953 585.01122063 600.0172894 581.99771118 594.74542236 C580.33292064 591.83299369 578.66837035 588.92042775 577.00390625 586.0078125 C576.67410263 585.43070526 576.34429901 584.85359802 576.00450134 584.25900269 C573.99338547 580.73949621 571.98342622 577.21933188 569.97433472 573.69866943 C563.17522042 561.78423855 556.36246827 549.87811196 549.5 538 C544.33176906 529.05441025 539.18568659 520.09645156 534.0625 511.125 C533.73105988 510.54461975 533.39961975 509.9642395 533.05813599 509.36627197 C530.36765892 504.6544859 527.67861348 499.94188318 524.98962402 495.22924805 C522.63958343 491.11078415 520.2889791 486.99264275 517.9375 482.875 C517.44021896 482.00418793 517.44021896 482.00418793 516.93289185 481.11578369 C512.14373456 472.73122469 507.3304097 464.36086157 502.5 456 C497.33176857 447.05440941 492.18583694 438.09636619 487.0625 429.125 C486.73139221 428.54528442 486.40028442 427.96556885 486.05914307 427.36828613 C482.68478936 421.45983362 479.31309538 415.54986911 475.94416809 409.63832092 C474.25523789 406.67509502 472.56534878 403.71241688 470.875 400.75 C470.37629898 399.87584946 470.37629898 399.87584946 469.86752319 398.98403931 C465.25230757 390.89790307 460.5838856 382.84444921 455.875 374.8125 C450.54637186 365.72204419 445.3708684 356.55424471 440.24511719 347.34814453 C435.72409435 339.24682422 431.07825996 331.22487741 426.38623047 323.22167969 C421.91721168 315.59201024 417.50651115 307.93015345 413.125 300.25 C412.62545303 299.37452011 412.62545303 299.37452011 412.11581421 298.48135376 C410.42200953 295.51240496 408.72904238 292.54297977 407.03662109 289.57324219 C403.67347949 283.67198311 400.30621933 277.7730765 396.9375 271.875 C396.60606995 271.29463989 396.27463989 270.71427979 395.9331665 270.11633301 C391.14392337 261.73158738 386.33051209 253.3610388 381.5 245 C376.33176906 236.05441025 371.18568659 227.09645156 366.0625 218.125 C365.73105988 217.54461975 365.39961975 216.9642395 365.05813599 216.36627197 C362.36765892 211.6544859 359.67861348 206.94188318 356.98962402 202.22924805 C354.63958343 198.11078415 352.2889791 193.99264275 349.9375 189.875 C349.44021896 189.00418793 349.44021896 189.00418793 348.93289185 188.11578369 C344.14373456 179.73122469 339.3304097 171.36086157 334.5 163 C327.29787206 150.53397777 320.15170324 138.03638756 313.01611328 125.53222656 C311.01064186 122.01819321 309.003618 118.50504842 306.99609375 114.9921875 C306.50139587 114.12654175 306.50139587 114.12654175 305.9967041 113.2434082 C304.99782905 111.49559043 303.99892111 109.74779145 303 108 C299.32338324 101.56710031 295.64680136 95.13418366 291.97444153 88.69885254 C290.29583603 85.75735423 288.61678484 82.81611052 286.9375 79.875 C286.44357254 79.00989807 286.44357254 79.00989807 285.93966675 78.12731934 C282.2985893 71.75166324 278.64827088 65.38149584 274.9765625 59.0234375 C274.32429688 57.89381592 273.67203125 56.76419434 273 55.6003418 C271.72607352 53.39745708 270.45009036 51.19576022 269.171875 48.99536133 C266.47222795 44.33868741 263.80117709 39.6783495 261.2734375 34.92578125 C260.6700354 33.80284668 260.6700354 33.80284668 260.05444336 32.65722656 C259.34245595 31.32195837 258.64382614 29.97942015 257.96313477 28.62792969 C255.63712243 24.280538 253.56285924 22.75523981 249 21 C245.70552629 20.58463106 242.4461277 20.60773904 239.12918091 20.63923645 C238.13991824 20.63667318 237.15065557 20.6341099 236.13141525 20.63146895 C232.81937751 20.62653088 229.50779646 20.64302477 226.19580078 20.65942383 C223.82056184 20.66027009 221.44532211 20.65979497 219.07008362 20.65809631 C213.29160198 20.65732434 207.51326973 20.67032842 201.73482223 20.68940929 C195.00964368 20.71087287 188.28448624 20.71534635 181.55927823 20.7187738 C169.56650553 20.72533564 157.57379412 20.74528952 145.58105469 20.77368164 C133.93294582 20.80122915 122.28485362 20.82245934 110.63671875 20.83520508 C109.91842916 20.83599325 109.20013956 20.83678142 108.46008362 20.83759347 C104.85654636 20.84150866 101.25300898 20.84529976 97.64947152 20.84902918 C67.7662714 20.88011676 37.88314288 20.93316865 8 21 Z M-10 32 C-17.12077539 44.10073889 -24.17272039 56.23086857 -31 68.5 C-36.13626659 77.7293412 -41.40212563 86.87237021 -46.75 95.98046875 C-50.92243959 103.1052819 -54.98495244 110.28546141 -59 117.5 C-64.13631389 126.72931402 -69.40212535 135.87236973 -74.75 144.98046875 C-79.52958103 153.14203011 -84.15348864 161.38444983 -88.75219727 169.64892578 C-92.72815635 176.77628267 -96.80163998 183.83939092 -100.9375 190.875 C-105.91733395 199.34965015 -110.75089103 207.89400177 -115.5 216.5 C-120.80212322 226.10813142 -126.23960865 235.62178932 -131.80078125 245.08203125 C-135.95900268 252.17161148 -140.0036613 259.31806095 -144 266.5 C-149.13625165 275.72934771 -154.40212624 284.87237125 -159.75 293.98046875 C-163.92243959 301.1052819 -167.98495244 308.28546141 -172 315.5 C-177.13631389 324.72931402 -182.40212535 333.87236973 -187.75 342.98046875 C-191.92243959 350.1052819 -195.98495244 357.28546141 -200 364.5 C-205.13631389 373.72931402 -210.40212535 382.87236973 -215.75 391.98046875 C-219.92243959 399.1052819 -223.98495244 406.28546141 -228 413.5 C-233.13631389 422.72931402 -238.40212535 431.87236973 -243.75 440.98046875 C-247.92243959 448.1052819 -251.98495244 455.28546141 -256 462.5 C-261.13631389 471.72931402 -266.40212535 480.87236973 -271.75 489.98046875 C-275.92243959 497.1052819 -279.98495244 504.28546141 -284 511.5 C-289.13631389 520.72931402 -294.40212535 529.87236973 -299.75 538.98046875 C-303.92243959 546.1052819 -307.98495244 553.28546141 -312 560.5 C-316.57572192 568.72200032 -321.23587783 576.8857099 -326 585 C-331.31839275 594.06184259 -336.49871109 603.19192699 -341.61376953 612.36987305 C-345.987516 620.21096857 -350.41487167 628.02030922 -354.875 635.8125 C-355.20836365 636.39495483 -355.54172729 636.97740967 -355.88519287 637.57751465 C-357.57873714 640.53593532 -359.27307826 643.49389866 -360.96777344 646.45166016 C-363.98368289 651.71621057 -366.99260211 656.984755 -370.00201416 662.25302124 C-371.66771971 665.16884639 -373.33388314 668.08440987 -375 671 C-375.66666886 672.16666541 -376.33333552 673.33333208 -377 674.5 C-410 732.25 -443 790 -525 933.5 C-525.32998993 934.07748489 -525.65997986 934.65496979 -525.99996948 935.24995422 C-526.66672911 936.41677849 -527.3334975 937.58359774 -528.00027466 938.75041199 C-529.66559088 941.66462646 -531.33075537 944.57892742 -532.99560547 947.4934082 C-536.01154606 952.77275664 -539.02862341 958.05143944 -542.05130005 963.32693481 C-543.7432784 966.28003016 -545.43437464 969.23362989 -547.125 972.1875 C-547.62383698 973.05900696 -547.62383698 973.05900696 -548.13275146 973.94812012 C-552.84670002 982.18785332 -557.50350912 990.4580625 -562.125 998.75 C-566.7299356 1007.00777937 -571.41734248 1015.211557 -576.1875 1023.375 C-576.76346924 1024.36709473 -577.33943848 1025.35918945 -577.93286133 1026.38134766 C-580.64876871 1031.04635436 -583.40403744 1035.67176772 -586.2890625 1040.234375 C-594.24196367 1052.17963958 -594.24196367 1052.17963958 -595.67626953 1065.90966797 C-593.01347295 1074.1403049 -587.6404766 1081.51538674 -583.03466797 1088.75292969 C-579.72280956 1094.03823288 -576.6523417 1099.45797838 -573.5625 1104.875 C-572.30434866 1107.06045065 -571.04522933 1109.24534431 -569.78515625 1111.4296875 C-569.16012207 1112.51475586 -568.53508789 1113.59982422 -567.89111328 1114.71777344 C-564.76319852 1120.14659942 -561.63141552 1125.57319281 -558.5 1131 C-557.24998121 1133.16665583 -555.99998122 1135.3333225 -554.75 1137.5 C-554.13125 1138.5725 -553.5125 1139.645 -552.875 1140.75 C-517.24999999 1202.50000002 -517.24999999 1202.50000002 -515.37402344 1205.75170898 C-514.12729744 1207.91268988 -512.88055273 1210.07365998 -511.63378906 1212.23461914 C-508.45854117 1217.73818851 -505.28364505 1223.24196032 -502.109375 1228.74609375 C-494.75123049 1241.50415943 -487.38465019 1254.25725643 -480 1267 C-475.66248604 1265.55416201 -474.70637328 1262.28157201 -472.6875 1258.4375 C-471.79155341 1256.7786002 -470.89297701 1255.12111882 -469.9921875 1253.46484375 C-469.50975586 1252.57651855 -469.02732422 1251.68819336 -468.53027344 1250.77294922 C-465.87709016 1245.96521858 -463.09247928 1241.23518082 -460.3125 1236.5 C-455.34314971 1228.01807903 -450.40496857 1219.51932325 -445.5 1211 C-440.69166435 1202.65191088 -435.86094247 1194.31756695 -431 1186 C-423.61585107 1173.36256546 -416.30509865 1160.68324702 -409 1148 C-401.12419276 1134.3258782 -393.23144154 1120.66263026 -385.26928711 1107.03857422 C-380.98755083 1099.70687521 -376.73779993 1092.35717019 -372.5 1085 C-367.69148156 1076.65201541 -362.86094317 1068.31756816 -358 1060 C-350.61585107 1047.36256546 -343.30509865 1034.68324702 -336 1022 C-328.12337411 1008.32445686 -320.22879908 994.66039042 -312.26708984 981.03417969 C-305.46412377 969.38340815 -298.73357814 957.69096256 -292 946 C-284.12419276 932.3258782 -276.23144154 918.66263026 -268.26928711 905.03857422 C-263.98755083 897.70687521 -259.73779993 890.35717019 -255.5 883 C-250.69148156 874.65201541 -245.86094317 866.31756816 -241 858 C-234.25286886 846.45277514 -227.5666063 834.87097881 -220.89111328 823.28222656 C-217.13971976 816.77128743 -213.38309006 810.26336806 -209.62744141 803.75488281 C-206.48817754 798.31414664 -203.35018503 792.87268523 -200.21484375 787.4296875 C-193.59777108 775.9455118 -186.95366023 764.47803106 -180.26708984 753.03417969 C-173.46412377 741.38340815 -166.73357814 729.69096256 -160 718 C-152.12419276 704.3258782 -144.23144154 690.66263026 -136.26928711 677.03857422 C-131.98755083 669.70687521 -127.73779993 662.35717019 -123.5 655 C-118.1208592 645.66136793 -112.70740553 636.34359683 -107.26953125 627.0390625 C-102.98777878 619.70716277 -98.73789061 612.35732762 -94.5 605 C-89.69148156 596.65201541 -84.86094317 588.31756816 -80 580 C-72.61585107 567.36256546 -65.30509865 554.68324702 -58 542 C-55.47990911 537.62457171 -52.95921017 533.24949527 -50.4375 528.875 C-49.51215454 527.26963379 -49.51215454 527.26963379 -48.56811523 525.63183594 C-44.27898653 518.19802137 -39.95761595 510.78353227 -35.625 503.375 C-31.59557931 496.47514503 -27.57293252 489.57188896 -23.625 482.625 C-23.24939941 481.97063965 -22.87379883 481.3162793 -22.48681641 480.64208984 C-20.60009715 477.51649555 -20.60009715 477.51649555 -20 474 C-13.88533277 471.49468496 -9.48940553 470.37764862 -3 472 C0.76642287 474.56230889 2.67999941 476.73080947 4.5 480.875 C7.29911092 486.76376247 10.47160331 492.33937716 13.8125 497.9375 C14.36486328 498.8641748 14.91722656 499.79084961 15.48632812 500.74560547 C16.68141611 502.74974271 17.8769086 504.75363878 19.07275391 506.75732422 C22.2092325 512.03458653 25.30762908 517.33405828 28.40756226 522.63284302 C33.7517959 531.76702317 39.1094599 540.89304811 44.5 550 C49.43702507 558.34227071 54.34932757 566.69884253 59.25 575.0625 C59.6063855 575.67070587 59.962771 576.27891174 60.32995605 576.9055481 C63.25532466 581.89834093 66.1796791 586.8917276 69.10400391 591.88513184 C71.65220484 596.23619339 74.20078989 600.58702961 76.75 604.9375 C77.10670776 605.54626984 77.46341553 606.15503967 77.83093262 606.78225708 C82.37181773 614.53068083 86.92604016 622.27104088 91.5 630 C96.43694337 638.34231931 101.34932737 646.69884219 106.25 655.0625 C106.6063855 655.67070587 106.962771 656.27891174 107.32995605 656.9055481 C110.25532466 661.89834093 113.1796791 666.8917276 116.10400391 671.88513184 C118.65220484 676.23619339 121.20078989 680.58702961 123.75 684.9375 C124.10670776 685.54626984 124.46341553 686.15503967 124.83093262 686.78225708 C129.37181773 694.53068083 133.92604016 702.27104088 138.5 710 C143.43694337 718.34231931 148.34932737 726.69884219 153.25 735.0625 C153.6063855 735.67070587 153.962771 736.27891174 154.32995605 736.9055481 C157.25532466 741.89834093 160.1796791 746.8917276 163.10400391 751.88513184 C165.29306806 755.62296615 167.48241401 759.36063512 169.67224121 763.09802246 C170.38919526 764.32169225 171.10607385 765.54540625 171.82287598 766.76916504 C175.41609479 772.90313516 179.01504732 779.03350873 182.640625 785.1484375 C183.21071289 786.11015869 183.78080078 787.07187988 184.36816406 788.06274414 C185.39445249 789.79211078 186.42223056 791.52059514 187.45214844 793.24780273 C192.10974415 801.09331013 196.52184325 809.03883245 201 817 C278.88 817 356.76 817 437 817 C435.65544343 813.63860857 434.37682824 810.68404867 432.671875 807.54296875 C432.20934326 806.69065674 431.74681152 805.83834473 431.27026367 804.96020508 C430.76857666 804.0452124 430.26688965 803.13021973 429.75 802.1875 C429.22059814 801.21901123 428.69119629 800.25052246 428.14575195 799.25268555 C423.71267094 791.19318513 419.09298089 783.25125272 414.42919922 775.32373047 C409.29891373 766.57768153 404.36880428 757.72811224 399.46337891 748.85449219 C394.27121095 739.46735437 388.97575084 730.14393272 383.63232422 720.84228516 C380.45779154 715.31462894 377.29031432 709.78293826 374.125 704.25 C373.61566422 703.36001816 373.61566422 703.36001816 373.09603882 702.45205688 C368.30579089 694.07882001 363.5707807 685.67669312 358.875 677.25 C354.33928037 669.11264954 349.71527886 661.03460427 345 653 C339.68179741 643.93804322 334.50129148 634.80807762 329.38623047 625.63012695 C325.01248215 617.78902812 320.58487008 609.97984057 316.125 602.1875 C315.79230103 601.60604218 315.45960205 601.02458435 315.11682129 600.42550659 C312.74610949 596.2827758 310.37331544 592.14123961 308 588 C305.29022133 583.27165982 302.5815298 578.54270072 299.875 573.8125 C299.54262329 573.23176727 299.21024658 572.65103455 298.86779785 572.05270386 C294.15365597 563.81270382 289.49642409 555.54235173 284.875 547.25 C280.36224829 539.15278675 275.75861303 531.11720806 271.0625 523.125 C265.42038573 513.52281393 259.98597531 503.81779673 254.60571289 494.06689453 C250.50272978 486.65084148 246.29754021 479.30484825 242 472 C236.37603639 462.44053137 230.96344799 452.77705316 225.60546875 443.06640625 C221.50253068 435.65053683 217.29744789 428.30469133 213 421 C208.03920831 412.56777394 203.22635587 404.06579665 198.5 395.5 C193.7509371 386.89397014 188.91715278 378.34975791 183.9375 369.875 C178.63997691 360.85926584 173.48203492 351.77525321 168.39257812 342.640625 C163.95823989 334.68939782 159.46250529 326.77480953 154.9375 318.875 C150.10095486 310.43012891 145.28011451 301.97698439 140.5 293.5 C135.69647069 284.98284923 130.85659131 276.48695659 126 268 C120.61548335 258.59048701 115.25935275 249.16558554 109.93359375 239.72265625 C105.6492809 232.1330013 101.32866634 224.56440081 97 217 C91.61548335 207.59048701 86.25935275 198.16558554 80.93359375 188.72265625 C76.6492809 181.1330013 72.32866634 173.56440081 68 166 C62.61548335 156.59048701 57.25935275 147.16558554 51.93359375 137.72265625 C47.6492809 130.1330013 43.32866634 122.56440081 39 115 C34.14340774 106.51304176 29.30382069 98.01698756 24.5 89.5 C17.05292033 76.30296822 9.54785702 63.13960988 2 50 C1.45553223 49.05044434 0.91106445 48.10088867 0.35009766 47.12255859 C-1.05205585 44.68220716 -2.46158699 42.2463425 -3.875 39.8125 C-4.27356201 39.11785645 -4.67212402 38.42321289 -5.08276367 37.70751953 C-6.95017562 34.27100028 -6.95017562 34.27100028 -10 32 Z M-10 498 C-11.29588177 499.83554957 -12.49420534 501.74019804 -13.6484375 503.66796875 C-14.00159027 504.25491013 -14.35474304 504.8418515 -14.71859741 505.44657898 C-18.449949 511.67970417 -22.04564837 517.99124012 -25.625 524.3125 C-27.0309032 526.78609637 -28.43897565 529.25845319 -29.84765625 531.73046875 C-30.19833664 532.34607666 -30.54901703 532.96168457 -30.9103241 533.59594727 C-34.25562191 539.46164301 -37.65199438 545.29699476 -41.0625 551.125 C-45.88018763 559.36014715 -50.67256916 567.60920288 -55.4375 575.875 C-56.05947266 576.95394531 -56.68144531 578.03289062 -57.32226562 579.14453125 C-59.21529126 582.42942992 -61.10775598 585.71465103 -63 589 C-70.87662589 602.67554314 -78.77120092 616.33960958 -86.73291016 629.96582031 C-92.89919054 640.52620282 -99.0049595 651.12126766 -105.10888672 661.71777344 C-108.86028024 668.22871257 -112.61690994 674.73663194 -116.37255859 681.24511719 C-119.51182246 686.68585336 -122.64981497 692.12731477 -125.78515625 697.5703125 C-132.40141117 709.05306897 -139.04390011 720.51960901 -145.73071289 731.96142578 C-150.01244917 739.29312479 -154.26220007 746.64282981 -158.5 754 C-163.30851844 762.34798459 -168.13905683 770.68243184 -173 779 C-180.38414893 791.63743454 -187.69490135 804.31675298 -195 817 C-202.87662589 830.67554314 -210.77120092 844.33960958 -218.73291016 857.96582031 C-225.53587623 869.61659185 -232.26642186 881.30903744 -239 893 C-246.87662589 906.67554314 -254.77120092 920.33960958 -262.73291016 933.96582031 C-269.53587623 945.61659185 -276.26642186 957.30903744 -283 969 C-290.87580724 982.6741218 -298.76855846 996.33736974 -306.73071289 1009.96142578 C-311.01244917 1017.29312479 -315.26220007 1024.64282981 -319.5 1032 C-324.30851844 1040.34798459 -329.13905683 1048.68243184 -334 1057 C-341.38414893 1069.63743454 -348.69490135 1082.31675298 -356 1095 C-363.87662589 1108.67554314 -371.77120092 1122.33960958 -379.73291016 1135.96582031 C-386.53587623 1147.61659185 -393.26642186 1159.30903744 -400 1171 C-407.87580724 1184.6741218 -415.76855846 1198.33736974 -423.73071289 1211.96142578 C-428.01244933 1219.29312507 -432.26216045 1226.64285238 -436.5 1234 C-441.56040473 1242.78428595 -446.6416098 1251.55602381 -451.75 1260.3125 C-452.33458984 1261.31474609 -452.91917969 1262.31699219 -453.52148438 1263.34960938 C-457.83873546 1270.74258253 -457.83873546 1270.74258253 -459.67675781 1273.67651367 C-461.16495993 1275.84400951 -461.16495993 1275.84400951 -461 1278 C-425.14445014 1278.01649431 -389.2889 1278.03231014 -353.43334961 1278.04760742 C-352.38092858 1278.04805651 -352.38092858 1278.04805651 -351.30724652 1278.04851467 C-276.1400997 1278.08057158 -200.97295278 1278.1082422 -125.80580139 1278.12702942 C-124.13645216 1278.12744777 -122.46710293 1278.12786613 -120.7977537 1278.12828448 C-85.75895716 1278.13705222 -50.7201605 1278.14520241 -15.68136366 1278.15263903 C1.91934868 1278.15637527 19.52006099 1278.16023019 37.12077328 1278.16419732 C39.77580189 1278.16479507 42.4308305 1278.16538943 45.08585911 1278.16598364 C85.97761087 1278.17516539 126.86935995 1278.18689521 167.7611084 1278.20599365 C168.64055701 1278.20640435 169.52000562 1278.20681505 170.42610419 1278.20723819 C184.60574305 1278.21387544 198.78538181 1278.22072621 212.96502055 1278.22760532 C253.79848715 1278.24741201 294.6319517 1278.26564415 335.46542263 1278.27341938 C336.30483806 1278.27357999 337.14425349 1278.27374059 338.00910575 1278.27390606 C356.43473677 1278.27740307 374.86036782 1278.28008776 393.28599908 1278.28200295 C400.69945449 1278.28278783 408.11290989 1278.28368969 415.52636528 1278.28463173 C416.33774398 1278.28473201 417.14912268 1278.28483229 417.98508862 1278.28493561 C444.1431612 1278.28822681 470.30121851 1278.30104635 496.45928493 1278.31884663 C522.80170509 1278.33672885 549.1441104 1278.34530106 575.48653678 1278.34087196 C579.12414219 1278.3402627 582.7617476 1278.33976056 586.39935303 1278.33932304 C587.4689945 1278.33918858 587.4689945 1278.33918858 588.56024489 1278.3390514 C599.86627949 1278.33790802 611.17228275 1278.34687535 622.4783088 1278.36002959 C633.58705133 1278.37274756 644.69576135 1278.37458193 655.80450994 1278.36549544 C661.75064802 1278.36094561 667.69668106 1278.36124403 673.64280809 1278.37464955 C679.04643709 1278.38674002 684.44987852 1278.38515784 689.85350445 1278.37241993 C691.80173019 1278.37026778 693.74996948 1278.37320399 695.69817786 1278.38170573 C698.33544943 1278.39248962 700.97204983 1278.38487452 703.6093002 1278.37259549 C704.74291313 1278.38388544 704.74291313 1278.38388544 705.89942734 1278.39540346 C711.05876179 1278.34388452 714.49826762 1277.34198425 719 1275 C721.10360122 1272.8525983 721.10360122 1272.8525983 722.65625 1270.23046875 C723.27814209 1269.27084229 723.90003418 1268.31121582 724.54077148 1267.32250977 C725.18731689 1266.28795654 725.8338623 1265.25340332 726.5 1264.1875 C727.91673357 1261.99139018 729.33472954 1259.7960943 730.75390625 1257.6015625 C731.46434082 1256.49200195 732.17477539 1255.38244141 732.90673828 1254.23925781 C735.99857781 1249.4547317 739.21143174 1244.75711939 742.4375 1240.0625 C743.67614701 1238.2515522 744.91442351 1236.44035093 746.15234375 1234.62890625 C746.77737793 1233.71512207 747.40241211 1232.80133789 748.04638672 1231.85986328 C751.53978314 1226.74593605 755.01912227 1221.62245259 758.5 1216.5 C764.43783712 1207.76441857 770.38367802 1199.03435286 776.3359375 1190.30859375 C781.06360221 1183.37668031 785.78304413 1176.43920404 790.5 1169.5 C796.43798394 1160.76451821 802.38367785 1152.03435311 808.3359375 1143.30859375 C813.77651973 1135.33136875 819.20659028 1127.34701865 824.63330078 1119.36035156 C828.18355959 1114.13655086 831.73875813 1108.91624382 835.3046875 1103.703125 C835.98982422 1102.70087891 836.67496094 1101.69863281 837.38085938 1100.66601562 C838.67523102 1098.77326649 839.97073763 1096.88129281 841.26757812 1094.99023438 C841.84701172 1094.14267578 842.42644531 1093.29511719 843.0234375 1092.421875 C843.52794434 1091.68549805 844.03245117 1090.94912109 844.55224609 1090.19042969 C846.109256 1087.83469732 847.55363569 1085.42487656 849 1083 C760.23068659 1082.94860044 671.46137138 1082.90089941 582.69204712 1082.87297058 C581.37900007 1082.87255641 580.06595303 1082.87214224 578.71311667 1082.87171552 C550.8744403 1082.86295619 523.03576378 1082.85479757 495.19708703 1082.84736097 C481.21311106 1082.84362474 467.22913513 1082.83976982 453.24515923 1082.83580268 C451.13570941 1082.83520493 449.02625958 1082.83461057 446.91680975 1082.83401636 C414.42846473 1082.82483478 381.94012308 1082.81310528 349.45178223 1082.79400635 C348.75308168 1082.79359565 348.05438113 1082.79318495 347.33450784 1082.79276181 C336.06915382 1082.78612457 324.80379993 1082.77927379 313.53844606 1082.77239468 C281.09669502 1082.75258759 248.65494656 1082.73435559 216.21319008 1082.72658062 C215.54626113 1082.72642001 214.87933217 1082.72625941 214.19219325 1082.72609394 C200.20994374 1082.72275393 186.22769417 1082.7200914 172.24544438 1082.71825503 C165.69792751 1082.71739052 159.15041067 1082.71641361 152.60289383 1082.71536827 C151.31420212 1082.715166 150.02551041 1082.71496373 148.69776744 1082.71475533 C127.92275191 1082.71120513 107.14775557 1082.69727735 86.37274788 1082.6795039 C65.50541557 1082.66187165 44.63810235 1082.65508865 23.77076285 1082.65949587 C11.36110622 1082.66178394 -1.0484807 1082.65563799 -13.45812479 1082.63760737 C-21.73770748 1082.62639549 -30.0172443 1082.62598227 -38.2968301 1082.63450456 C-43.02087014 1082.63905334 -47.74477797 1082.6387603 -52.46880408 1082.62535045 C-56.76236257 1082.61325462 -61.05568506 1082.61484727 -65.34923973 1082.62758007 C-66.8967391 1082.62973116 -68.44425555 1082.62680031 -69.99173304 1082.61829427 C-72.08771104 1082.60749943 -74.18284621 1082.61513282 -76.27879775 1082.62740451 C-77.4408534 1082.62693657 -78.60290905 1082.62646863 -79.80017851 1082.62598651 C-83.42337851 1083.04948691 -85.82858921 1084.24591047 -89 1086 C-92.85906276 1086.71179819 -96.19754183 1086.35664808 -99.8125 1084.75 C-102.92492721 1082.26005823 -104.82691327 1080.40117828 -105.328125 1076.34375 C-105.30234375 1075.4053125 -105.2765625 1074.466875 -105.25 1073.5 C-105.23453125 1072.5615625 -105.2190625 1071.623125 -105.203125 1070.65625 C-105.02122227 1068.27752202 -104.81933882 1066.23918684 -104 1064 C-102.3523962 1063.28752268 -100.68236471 1062.62599617 -99 1062 C-95.73016577 1059.14409984 -93.71572648 1056.09920496 -91.6015625 1052.328125 C-90.96476562 1051.20148437 -90.32796875 1050.07484375 -89.671875 1048.9140625 C-89.17204102 1048.01929199 -89.17204102 1048.01929199 -88.66210938 1047.10644531 C-87.2457943 1044.57121465 -85.81528802 1042.04409327 -84.38543701 1039.51647949 C-83.65235209 1038.22040919 -82.91997484 1036.92393836 -82.18829346 1035.6270752 C-78.85103439 1029.71672639 -75.43528011 1023.85387617 -72 1018 C-66.99155411 1009.4450947 -62.03844566 1000.85974747 -57.125 992.25 C-56.79211975 991.6667395 -56.4592395 991.083479 -56.11627197 990.48254395 C-53.74261615 986.32258771 -51.371073 982.16142877 -49 978 C-46.29310624 973.24917808 -43.58529654 968.49888166 -40.875 963.75 C-40.54195862 963.16641724 -40.20891724 962.58283447 -39.86578369 961.98156738 C-34.72647333 952.98021232 -29.52288709 944.0178681 -24.28637695 935.07275391 C-19.48564601 926.86056671 -14.75850731 918.60722821 -10.046875 910.34375 C-5.22207465 901.88179246 -0.37431361 893.43357068 4.5 885 C9.69240439 876.01459169 14.85681108 867.01363123 20 858 C25.75503458 847.91408633 31.54245848 837.84736534 37.35327148 827.79345703 C41.60759005 820.42748802 45.83358054 813.04572029 50.046875 805.65625 C55.31864144 796.4103827 60.6229507 787.18518608 66 778 C71.007452 769.44450423 75.96141569 760.85968284 80.875 752.25 C81.20488922 751.67205688 81.53477844 751.09411377 81.87466431 750.49865723 C84.98166363 745.05431794 88.08485343 739.60781115 91.18603516 734.16015625 C93.0032433 730.96799422 94.82193974 727.77668375 96.64141846 724.58581543 C97.65726377 722.80306291 98.6712002 721.01923456 99.68505859 719.23535156 C100.62019287 717.59518066 100.62019287 717.59518066 101.57421875 715.921875 C102.44892822 714.38370117 102.44892822 714.38370117 103.34130859 712.81445312 C105.17494265 709.70315884 107.15220348 706.72118501 109.26098633 703.79003906 C110.32946659 701.20196596 109.80002011 699.64627889 109 697 C107.98337201 694.83280688 107.98337201 694.83280688 106.65625 692.71875 C106.16060547 691.89181641 105.66496094 691.06488281 105.15429688 690.21289062 C104.60837891 689.31763672 104.06246094 688.42238281 103.5 687.5 C102.31171205 685.52130632 101.12425489 683.54211354 99.9375 681.5625 C99.30070313 680.50417969 98.66390625 679.44585938 98.0078125 678.35546875 C94.83046001 673.04545749 91.70977605 667.70256925 88.58740234 662.36010742 C86.76879515 659.24920301 84.94708052 656.140121 83.125 653.03125 C82.77074951 652.42680054 82.41649902 651.82235107 82.05151367 651.19958496 C78.88077427 645.79195406 75.69306575 640.39446802 72.5 635 C67.56297493 626.65772929 62.65067243 618.30115747 57.75 609.9375 C57.21542175 609.02519119 57.21542175 609.02519119 56.67004395 608.0944519 C53.74467534 603.10165907 50.8203209 598.1082724 47.89599609 593.11486816 C45.34779516 588.76380661 42.79921011 584.41297039 40.25 580.0625 C39.71493835 579.14934525 39.71493835 579.14934525 39.16906738 578.21774292 C34.11818731 569.59907979 29.04695165 560.99267959 23.95874023 552.39599609 C19.76418055 545.30452587 15.59307546 538.19948239 11.42800903 531.09066772 C10.32576215 529.21012653 9.22246892 527.33020301 8.11889648 525.45043945 C4.9810109 520.10340478 1.8504734 514.75290598 -1.234375 509.375 C-1.93300659 508.16420776 -1.93300659 508.16420776 -2.64575195 506.92895508 C-3.48122741 505.4792291 -4.31090234 504.02613806 -5.13354492 502.5690918 C-6.03359091 501.01265643 -7.00820038 499.49963574 -8 498 C-8.66 498 -9.32 498 -10 498 Z M121 721 C113.6142359 733.77416069 106.24382115 746.55641587 98.93536377 759.37496948 C90.37163883 774.39383322 81.70967169 789.35455557 72.90625 804.234375 C72.43364746 805.03399658 71.96104492 805.83361816 71.47412109 806.6574707 C70.5989928 808.13644703 69.72183488 809.614225 68.84228516 811.09057617 C66.87495513 813.87083671 66.87495513 813.87083671 66 817 C103.29 817 140.58 817 179 817 C168.79113479 799.13448588 158.57285852 781.27756849 148.07788086 763.57836914 C142.56672505 754.2827794 137.10645338 744.95758644 131.64697266 735.6315918 C131.29415222 735.02909607 130.94133179 734.42660034 130.57781982 733.80584717 C129.61655987 732.16425624 128.65567899 730.52244335 127.69482422 728.88061523 C127.13553223 727.93001221 126.57624023 726.97940918 126 726 C125.47293457 725.0500415 124.94586914 724.10008301 124.40283203 723.12133789 C123.70843018 722.07127563 123.70843018 722.07127563 123 721 C122.34 721 121.68 721 121 721 Z " fill="#000000" transform="translate(652,132)"/>
</svg>
